<svg xmlns="http://www.w3.org/2000/svg" viewBox="0 0 451.66 126.7">
  <path d="M454.26,78.32c-.8-1.3-.78-2.83-1.05-4.25a10.35,10.35,0,0,0-4.63-6.89,2,2,0,0,1-1.06-1.82,15.15,15.15,0,0,0-.32-4c-.15-.59-.31-1.16-.93-1.42h-.71a1.41,1.41,0,0,0-.77,1.47c0,1.16,0,2.31,0,3.47a2.41,2.41,0,0,1-1.25,2.23,13.85,13.85,0,0,0-3.57,3.59c-1.56,2.2-1.76,4.93-2.35,7.43a8,8,0,0,0,.63,6.26,2.06,2.06,0,0,1,.19,1q0,10.26,0,20.54c0,2.7,0,5.4-.12,8.1-.07,2.22.17,4.45.16,6.68,0,4.39,0,8.77,0,13.15,0,1.74.24,1.93,1.91,1.94H452.1c1.19,0,1.43-.25,1.51-1.45,0-.48,0-1,0-1.44V113.56q0-14.1,0-28.21a4.09,4.09,0,0,1,.61-2.73Zm-10.82.79c.72,0,1.26.15,1.22,1.13,0,.8-.29,1.1-1,1-.83.13-1.19-.1-1.2-1S442.72,79.1,443.44,79.11Zm-3.73,1c0-.77.5-1,1.11-.86.72,0,1.28-.08,1.25.94s-.55,1-1.27,1C439.9,81.29,439.7,80.76,439.71,80.09Zm2.67,2.71c1-.08.84.61.9,1.21a.79.79,0,0,1-1,1c-.54-.08-1.36-.14-1-1.07C441.14,82.93,441.66,82.85,442.38,82.8Zm.85,29.22c0,.57-.11,1-.84.87-.55-.1-1.18,0-1.09-1,.06-.75.33-1.27,1-1.3C443.2,110.6,443.25,111.31,443.23,112Zm-1.12-2c-.43.06-.86-.09-.81-1,0-.74.33-1.06,1-1s1.2.24,1.18,1.13S443,110,442.11,110Zm2.77,5.76c-.62,0-1-.22-1-1s.17-1.25.9-1.25,1.34.23,1.23,1.21C446.22,115.67,445.5,115.7,444.88,115.74Zm.05-19.48c-.88.06-1-.38-1-1.15s.27-1.07,1-1,1.26.18,1.08,1.07C446.17,96.07,445.65,96.21,444.93,96.26Zm.09-2.91c-.89.18-1.14-.19-1.13-1s.2-1.16,1-1.09c.63.06,1.22.1,1.17,1C446,93.07,445.88,93.56,445,93.35Zm-.14,14.15c-.82,0-.91-.46-1-1.11-.08-.84.34-1.18,1.06-1.16s1.2.18,1.07,1C446.09,107.1,445.73,107.48,444.88,107.5Zm1.15,1.61c0,.8-.49,1-1.11,1s-1-.19-1-.94.18-1,.93-1S446,108.26,446,109.11ZM444.81,102c-.72,0-.89-.55-.91-1.24,0-.89.5-.94,1.27-.92.58-.06.88.2.89,1C446.08,101.78,445.46,102,444.81,102ZM445,87.83c-.56,0-1.43,0-1.28-1.11-.15-.87.39-1.13,1.08-1.13s1.29.06,1.3,1.08C446.07,87.53,445.59,87.88,445,87.83Zm2.57,17c-.61,0-1.25-.34-1-1.16-.07-.84.32-1.17,1-1.16s1.1.33,1.09,1.08S448.25,104.83,447.54,104.79Zm0-5.19c.64,0,1.13.32,1,1s-.07,1.41-1,1.41-1.09-.48-1-1.26C446.35,99.91,446.77,99.59,447.54,99.6Zm.07-3.38c-.89.17-1.15-.22-1.13-1s.11-1.15.95-1.1,1.28.13,1.22,1.1C448.61,96,448.42,96.42,447.61,96.22Zm2.27-2.81c-.89,0-1-.43-1-1.17,0-1,.59-1,1.3-1,.89,0,1,.41.81,1.07C451.18,93.27,450.71,93.41,449.88,93.41Zm.26,3.52c.9-.09.92.45.81,1.08.2.94-.22,1.12-1.06,1.14-1.07,0-.92-.73-1-1.33C448.78,96.82,449.53,97,450.14,96.93Zm0,16.25a1.17,1.17,0,0,1-1.22-1.27c0-.76.26-1.32,1.18-1,1-.27.9.47.92,1.09S450.83,113.22,450.12,113.18Zm-.25-2.79c-1,0-.92-.7-.95-1.24,0-.74.26-1.23,1.17-1.23,1.12,0,.85.77.91,1.36C451.18,110.28,450.67,110.36,449.87,110.39Zm.22-25.17A1.13,1.13,0,0,1,448.86,84c0-.83.27-1.4,1.21-1.21,1.05-.25.91.51,1,1.13S450.84,85.2,450.09,85.22Zm1.68-3.82c-.74,0-1.32-.2-1.31-1.23s.43-1.16,1.43-1.13c.47.06,1.19.07,1.2,1.1S452.52,81.39,451.77,81.4Z" transform="translate(-2.6 -9.14)" fill="#174cfe"/>
  <path d="M431.67,124.13c-1.54,0-3.08,0-4.62,0s-1.87-.25-1.89-1.85v-.72q0-20.67,0-41.35c0-.67,0-1.35,0-2s-.11-1.35-.94-1.43-1,.61-1.16,1.43c0-3.73,0-7.27,0-10.81a2.94,2.94,0,0,0-.34-2A4.93,4.93,0,0,1,421.54,62a.86.86,0,0,0-.94-1c-.61,0-1.09.2-1.22.88-.06.27-.06.55-.1.83-.18,1.1-.68,1.45-1.93,1.41-1,0-1.42-.53-1.43-1.49,0-.64,0-1.3-.57-1.75h-.71a2,2,0,0,0-.56,1.75,2.6,2.6,0,0,1-.81,2,4.14,4.14,0,0,0-1.34,3.53c0,3.2,0,6.4,0,9.87-.21-.9-.48-1.46-1.22-1.37s-.7.84-.69,1.41c.11,5.93.12,11.86.13,17.8,0,1.07-.13,2.14-.14,3.21,0,3.9.15,7.8.12,11.69,0,3.07,0,6.13-.09,9.2-.17,4.89.19,9.79.08,14.69,0,.9.3,1.16,1.18,1.14,3-.09,6.07,0,9.11-.11,3.91-.11,7.83-.05,11.74,0a1.22,1.22,0,0,0,1-.26V124.93A1.42,1.42,0,0,0,431.67,124.13ZM420.39,69.75c.59,0,.69.54.64,1.16-.15.43-.24,1-1,.94s-.9-.7-.87-1.32S419.89,69.74,420.39,69.75Zm-.19,2.63c.55,0,.88.41.83,1.27,0,.25,0,.86-.71.84s-1.16-.21-1.2-1A1,1,0,0,1,420.2,72.38Zm-5.41-5.45c.45.1,1.1.09,1.32.79-.36.45-.68,1-1.28,1s-.83-.48-.86-1A.72.72,0,0,1,414.79,66.93Zm-.06,5.61c.49.18,1.07.19,1.09.88s-.4.91-.94.94a.87.87,0,0,1-.92-.94C413.94,72.91,414.29,72.67,414.73,72.54ZM413.88,82c.74,0,.85.52.75,1.08s.06,1.34-.84,1.21c-.59-.08-1.29,0-1.33-1S413.18,82,413.88,82Zm-.22,16.39c-.9.16-1.15-.25-1.17-1.05s.26-1.1,1.08-1.11,1.1.28,1.09,1.11S414.5,98.58,413.66,98.37Zm.13-8.52c-.67-.07-1.41.1-1.32-1.08.07-.86.28-1.15,1.16-1.16s1.09.51,1,1.29C414.76,89.57,414.56,90,413.79,89.85ZM414,79c0-.49.25-1,.86-.92s1,.29,1,1-.46.72-1,.72S413.9,79.66,414,79Zm2.24,16.48c-.92.29-1-.49-1.06-1,0-.73.31-1.15,1.2-1.12s1.16.26,1.16,1.16S417,95.6,416.21,95.5Zm.34-19.16c-.06-.64.43-.94.94-1s.72.45,1,.81c-.17.5-.28,1-.89,1S416.61,76.9,416.55,76.34Zm3.54,20.72c.07,1-.34,1.35-1.23,1.34s-1.18-.26-1.16-1.16a1.06,1.06,0,0,1,1.21-1.2C419.49,96.05,420.3,96.09,420.09,97.06Zm-1-18c0-.76.48-1,1.16-1s.72.56.79,1-.2,1-.82.88S419.1,79.86,419.11,79.08Zm2.35,5.65c1.08,0,1.17.75,1.19,1.36a1,1,0,0,1-1.28,1c-1.07.18-1-.51-1.06-1.24C420.26,85,420.6,84.77,421.46,84.73Zm.24,13.67c-.86,0-1.11-.47-1.15-1.26s.31-1.13,1.09-1.14a.91.91,0,0,1,1,1.08C422.6,97.58,422.64,98.41,421.7,98.4Zm-.12-5.53c-.65,0-1.31-.2-1.27-1.18s.52-1.24,1.4-1.18c.78-.15,1,.37,1,1S422.43,92.92,421.58,92.87Z" transform="translate(-2.6 -9.14)" fill="#174cfe"/>
  <path d="M406.5,81.91v-1.2a1.28,1.28,0,0,0-1.33-.78,21.07,21.07,0,0,1-2.25-.05c-.54-.07-.74-.38-.28-.79a1.35,1.35,0,0,0,.57-1.55c-.29-.76-1-.74-1.61-.71a2.18,2.18,0,0,1-2.25-1.4c-1.66-3.47-3.62-6.78-5.29-10.24a3,3,0,0,0-1.35-1.45h-.95a5.68,5.68,0,0,0-2.12,2.8c-1.48,2.9-3,5.8-4.51,8.67a2.74,2.74,0,0,1-2.51,1.67c-1.25,0-1.67.8-1.11,2,.4.82,0,1-.64,1s-1.19,0-1.78.06-.95.14-1.13.7-.21,1.27.26,1.55c1.52.88,1.33,2.29,1.33,3.68v46c0,.72,0,1.44,0,2.15.07,1.48.39,1.77,1.88,1.81,1.7,0,3.39-.11,5.09-.12h16.63a7.66,7.66,0,0,1,.83,0c1,.09,1.35-.41,1.37-1.34.05-1.91,0-3.82,0-5.73,0-.72,0-1.43.07-2.15.19-1.62-.35-2.27-2-2.32-2.26-.07-4.52,0-6.77,0-1.4,0-1.71-.3-1.73-1.66q-.06-3.94,0-7.89c0-1.41.34-1.71,1.8-1.74,1.66,0,3.32,0,5,0,1.46-.07,1.92-.52,2-2,.08-2.55.07-5.1,0-7.65,0-1.36-.36-1.67-1.71-1.73-1.78-.08-3.57,0-5.35,0-1.35,0-1.66-.34-1.69-1.72,0-2,0-4,0-6,0-1.6.3-1.89,1.87-1.92,1.94,0,3.88.06,5.82,0,1.15-.06,1.45-.39,1.53-1.54a24.67,24.67,0,0,0,0-3.1C404.11,85,404.39,83,406.5,81.91Zm-20.25,9.55c-.05.56-.12,1.41-1,1.4-.64,0-1.1-.45-.89-1.1,0-.71-.08-1.26.79-1.26C385.89,90.5,386.31,90.85,386.25,91.46Zm-1.47-6.69c.7,0,1.09.35,1.05,1.09,0,.57,0,1.15-.82,1.14s-1.19-.15-1.13-1.06C383.92,85.28,383.93,84.74,384.78,84.77Zm-.86,6.68c.08,1.09-.66,1.17-1.4,1.21s-.94-.48-1-1.15c-.07-1,.46-1,1.18-1S384,90.52,383.92,91.45Zm-1.21-3.82c.94,0,1,.48,1,1.19.05,1-.47,1-1.18,1-.91,0-1.1-.42-.95-1.12C381.41,87.68,382,87.66,382.71,87.63Zm-.22,16.27c-.79,0-1-.54-.95-1.21s.36-1.2,1.12-1.17,1,.57,1,1.35S383.21,103.9,382.49,103.9Zm1.33-3.56a1.28,1.28,0,0,1-1.15.69,1.11,1.11,0,0,1-1-1.71c.47-.66.23-1,0-1.58a1.27,1.27,0,0,1,.21-1.53c.42-.37.89-.21,1.33,0,.84.36.49,1,.35,1.61s-.6,1.1.23,1.56C384.07,99.52,384,100.07,383.82,100.34Zm1.35-7c.67-.09,1,.22.89.88s-.1,1.16-.86,1.15-1-.45-1.05-1.15S384.51,93.3,385.17,93.39Zm.08,7.62c-.77.09-.83-.5-.87-1.11s.18-1,.94-1c.45.12,1,.26,1,1A1,1,0,0,1,385.25,101Zm2.49-7.66c.64,0,1.06.09,1,.87s-.19,1.23-1,1.2-1.14-.29-1-1.11C386.59,93.49,387,93.35,387.74,93.35Zm.23,7.53c-.64-.06-1.23,0-1.22-1s.62-.92,1.23-1,.89.46.9,1S388.73,100.94,388,100.88Zm-.06-11c-.9,0-1.48-.2-1.33-1.11-.08-1,.45-1.35,1.12-1.32s1.48.34,1.45,1.34C389.12,89.57,388.67,89.83,387.91,89.86Zm.1-2.92c-.65,0-1.25-.17-1.23-1s.55-1.09,1.21-1.18a.93.93,0,0,1,1.16,1C389.21,86.63,388.66,86.84,388,86.94Z" transform="translate(-2.6 -9.14)" fill="#174cfe"/>
  <path d="M374.83,98.41H375a.53.53,0,0,0,0-.13S374.87,98.32,374.83,98.41Zm.13-.12s-.09,0-.13.12h.23C375,98.34,375,98.3,375,98.29Zm0,0s-.09,0-.13.12h.23C375,98.34,375,98.3,375,98.29ZM355.43,69.86s0,.07.12.11v-.23Q355.42,69.8,355.43,69.86Zm0,0s0,.07.12.11v-.23Q355.42,69.8,355.43,69.86Zm0,0s0,.07.12.11v-.11Zm19.51,19.87a8.65,8.65,0,0,0-.76-3.56,10.64,10.64,0,0,0-5.67-4.82,28.38,28.38,0,0,0-6-1.15c-1.79-.26-2.06-.46-2.08-2.32,0-2.14,0-4.29,0-6.43,0-1.29-.2-1.5-1.41-1.57a.2.2,0,0,0-.08-.14h-3.33V70c-.08,0-.12-.07-.12-.11s0-.08.12-.12h-2.62a.25.25,0,0,1,0,.12h-.06c-1.11-.07-1.31.71-1.4,1.54-.11,1.07,0,2.15,0,3.22,0,1.91-.3,2.2-2.23,2.21-1.59,0-3.17,0-4.76,0-1.86.06-2.32.53-2.32,2.38q0,27.65,0,55.29c0,1.27,0,1.3,1.36,1.32,4.44.08,8.87-.18,13.31-.12,2.34,0,4.68.1,7,0s4.45.08,6.53-.93c2.28-1.1,4-2.6,4.47-5.3.25-1.42-.06-2.86.28-4.25V98.42h-.23c0-.09.09-.13.13-.12s.06,0,.1.13V92.68A18.16,18.16,0,0,1,374.94,89.73ZM347.57,79.26c.62,0,1.1.07,1.08.88s-.47.91-1.14.81c-.79.24-.91-.39-1-.92C346.44,79.26,347,79.28,347.57,79.26ZM346.5,82.7c.1-.69.33-1.23,1.19-1.27s.9.59.94,1.15c.07.85-.55.81-1.21.78C347.06,83.32,346.37,83.6,346.5,82.7Zm-1.65-1c.58,0,.82.41.84.92s-.35.82-.88.71c-.57.05-1,0-1-.72S344.35,81.76,344.85,81.72Zm.16,5.4c.53-.08.83.28.68.82s0,1.26-1,1c-.77.06-1-.45-1-1.13C343.78,86.88,344.54,87.18,345,87.12Zm-.15,7.22a.83.83,0,0,1-.81-1c.07-.61.59-.68,1.05-.68s.68.33.69.81C345.64,94,345.45,94.42,344.86,94.34Zm.14-2.63a1.06,1.06,0,0,1-1.06-1.06c-.09-.64.56-.66,1-.77s.75.24.9.65C345.65,91.05,345.66,91.68,345,91.71ZM347.84,89c-.61,0-1.39.1-1.37-1,0-.81.37-1,1.07-1s1.11.28,1.11,1.12C348.67,88.53,348.51,89,347.84,89Zm-.38-2.74c-.75.16-1-.17-1-1s.53-1.08,1.2-1.08,1,.42,1,1.16S348.15,86.29,347.46,86.22Zm2.92-2.38c-.86,0-1.16-.53-1.06-1.42-.11-.73.2-1,1.05-1s1.12.52,1.13,1.27S351.18,83.87,350.38,83.84Zm2.83-2.61c-1,0-1-.59-1-1.36-.24-.9.51-1.19,1.11-1.22s1.09.55,1.06,1.29S354.15,81.2,353.21,81.23Zm4.62-7.63c.66,0,.72.65.79,1.13s-.34.82-.89.79-1.06,0-1-.81A1.05,1.05,0,0,1,357.83,73.6Zm-1.13-1.86c0-.77.52-.93,1.08-1,.73-.07.79.57.83,1s-.23.92-.93.83C357.14,72.65,356.68,72.54,356.7,71.74Zm4.53,49a21.19,21.19,0,0,1-.58,3.58c-.24,1.34-2.5,2.28-3.62,2.06-.74-.14-.74-.77-.75-1.3,0-1.43,0-2.87,0-4.3v-12.9h0c0-5.33,0-10.67,0-16,0-.67-.36-1.73.38-1.94a3.26,3.26,0,0,1,4.55,3.33Q361.3,107,361.23,120.73Z" transform="translate(-2.6 -9.14)" fill="#174cfe"/>
  <path d="M34.62,80.76a6.1,6.1,0,0,1-.75-3.31c0-5,0-10,0-15a11.67,11.67,0,0,0-.07-1.67,1,1,0,0,0-1-1c-.64,0-.89.43-1,1a15.44,15.44,0,0,0-.06,1.67V77a11.42,11.42,0,0,1-.05,1.55,1.41,1.41,0,0,1-1.49,1.39c-.79,0-1.58,0-2.37,0-1.52,0-1.81-.3-1.82-1.82,0-2.62,0-5.25,0-7.87A13.3,13.3,0,0,0,26,68.7c-.08-.58-.35-1-1-1s-.89.44-1,1A9.72,9.72,0,0,0,24,70.15q0,3.93,0,7.88a2.09,2.09,0,0,1-1,2.13,1.38,1.38,0,0,0-.62,1.22c-.06.67,0,1.35-.05,2,0,2.7.13,5.41-.09,8.11a27.77,27.77,0,0,0,0,5.47,28.3,28.3,0,0,1,0,4.51c-.82-2.1-1.45-4.23-2.12-6.35-1.05-3.33-2.19-6.63-3.22-10s-2.11-6.64-3.16-10c-1.31-4.2-2.66-8.4-4.05-12.57A2.61,2.61,0,0,0,8.55,61a1.9,1.9,0,0,1-1-1.89c0-1.39-.07-2.78,0-4.17A1.42,1.42,0,0,0,7,53.53h-1a1.87,1.87,0,0,0-.56,1.63c0,1.31,0,2.62,0,3.93S5.17,60.7,4,60.83s-1.38.72-1.38,1.68c0,1.43,0,2.86,0,4.28.06,4.81,0,9.61.06,14.41.09,17.75,0,35.49,0,53.23,0,1.26.08,1.38,1.31,1.38H12.2c3.18,0,3.19,0,3.19-3.14,0-6.09,0-12.18,0-18.41.85,2.72,1.6,5.32,2.34,7.91,1.17,4.08,2.28,8.17,3.54,12.23a1.8,1.8,0,0,0,2,1.41H33.57a1.11,1.11,0,0,0,1.17-.6V106.08h-.21c0-.07.06-.11.09-.11s.08,0,.12.12V80.76ZM5.85,76.7A1,1,0,0,1,7,78c0,.6,0,1.35-.91,1.32-.76,0-1.48-.1-1.21-1.14C4.79,77.33,4.91,76.7,5.85,76.7Zm.24,16.71c-.8.09-1.24-.14-1.24-1s.54-1.12,1.29-1.13,1.13.23,1,.94S7.13,93.69,6.09,93.41Zm0-2.91c-.72-.07-1.24-.25-1.25-1.19s.58-1,1.29-1,1.12.07,1.06.82S7.08,90.6,6.08,90.5Zm-.15-5.69c-.79.16-1.11-.11-1.1-1s.4-1.15,1.21-1.17,1.12.33,1.14,1.13S6.76,85,5.93,84.81ZM7.18,72.2C7.11,73,7,73.66,6,73.37c-.93.18-1.11-.26-1.12-1.11s.5-1.08,1.26-1.06S7.25,71.4,7.18,72.2ZM6.07,67.86c-.8.07-1.23-.14-1.24-1.09s.46-1.21,1.27-1.27c1-.08,1,.66,1.09,1.31C7.27,67.63,6.85,68,6.07,67.86ZM6,65c-.92,0-1.11-.34-1.14-1.19,0-1,.55-1.06,1.29-1,1-.18,1.08.49,1.1,1.22C7.25,64.93,6.67,65,6,65Zm2.77,3.54c.95,0,1.12.55,1.1,1.31,0,1-.84.79-1.39.84-.83.07-.78-.59-.75-1.21C7.56,68.7,8,68.56,8.74,68.56Zm-.16,17c.63.06,1.12.25,1.11,1s-.28,1.11-1.11,1.14-1-.38-.87-1C7.64,86,7.7,85.45,8.58,85.54Zm.15,10.75c-.87,0-1-.4-1.06-1.16s.16-1.29,1.09-1.26c.78,0,1.19.31,1.07,1.17C10,95.89,9.57,96.24,8.73,96.29Zm.06-17.08c-.94,0-1-.75-1-1.41,0-.49.11-1.15.81-1.08s1.58.15,1.3,1.32C10.05,78.92,9.63,79.24,8.79,79.21Zm2.5.59c.81,0,1.36.18,1.37,1.18s-.7,1.12-1.4,1.14S10,81.89,10,80.94,10.51,79.77,11.29,79.8Zm0,13.63c-.92,0-.93-.64-1-1.29-.06-.88.51-.94,1.11-.91s1.25.16,1.21,1A1.15,1.15,0,0,1,11.27,93.43Zm.34-5.71c-.92,0-1-.49-1-1.17a.87.87,0,0,1,1-1c.65,0,1.29.14,1.09,1.07C12.82,87.48,12.39,87.68,11.61,87.72Zm3.29-1.21c-.06.59.14,1.25-.85,1.2s-.87-.53-.9-1.17c0-.8.3-1,1-1S14.89,86.06,14.9,86.51Z" transform="translate(-2.6 -9.14)" fill="#f33c2c"/>
  <path d="M51.2,63.75h.95c1.21.54,1.56,1.78,2.07,2.8,1.49,3,3.2,5.83,4.63,8.83a2.08,2.08,0,0,0,2.08,1.46,1.87,1.87,0,0,1,.69.13c1.12.36,1.34,1,.67,2-.5.73-.43.9.43,1,.63,0,1.26,0,1.89,0a1.28,1.28,0,0,1,1.33.79v1.19c-1.8,1.09-2.21,2.76-2.06,4.72a26.79,26.79,0,0,1,0,3.47c-.09,1.24-.44,1.61-1.7,1.67-1.86.1-3.72,0-5.58,0s-2.18.31-2.19,2.25,0,3.75,0,5.62c0,1.34.38,1.69,1.72,1.73,1.7,0,3.4,0,5.1,0,1.54.06,1.89.4,1.93,1.94.06,2.51.07,5,0,7.53,0,1.43-.46,1.83-1.88,1.9-1.66.07-3.33,0-5,0-1.5,0-1.86.35-1.88,1.81q0,3.83,0,7.65c0,1.41.39,1.82,1.77,1.79,2.26,0,4.5.3,6.76.3,1.46,0,1.84.4,1.88,1.86q.1,4,0,8c0,1.26-.24,1.43-1.51,1.43q-11.28,0-22.56,0c-1.24,0-1.41-.19-1.49-1.46,0-.72,0-1.44,0-2.15q0-23.13,0-46.26c0-1.37.07-2.71-1.36-3.56-.49-.29-.39-.93-.28-1.44s.59-.59,1-.64c.67-.07,1.35,0,2-.08.84-.11,1-.45.65-1.21-.57-1.23-.37-1.7,1-1.82a2.92,2.92,0,0,0,2.48-1.75c1.7-3.24,3.41-6.48,5-9.77A5.46,5.46,0,0,1,51.2,63.75ZM47.39,95.57c.85,0,1.21-.36,1.21-1.19s-.38-1.43-1.29-1.47-1.15.51-1.1,1.3S46.47,95.55,47.39,95.57Zm-4,1.46c0-.82-.19-1.34-1.2-1.3S41,96.31,41,97.12s.44,1.19,1.27,1C43.19,98.37,43.41,97.88,43.37,97Zm1.35-4.11c-1,0-1.1.57-1.14,1.38s.19,1.31,1.16,1.29,1.1-.41,1-1.12C45.78,93.66,45.71,93,44.72,92.92Zm2.64,8.32c.88.05,1.21-.67,1.21-1.43s-.26-1.2-1.13-1.18-1.29.44-1.22,1.44C46,101,46.69,101.2,47.36,101.24Zm-5.24-2.62c-.94,0-1.19.46-1.12,1.2s-.17,1.5,1,1.47c1,0,1.21-.55,1.15-1.45C43.19,99.16,43.13,98.63,42.12,98.62Zm2.58,0c-1,0-1.08.63-1.12,1.42s.28,1.22,1.12,1.21,1.18-.32,1-1.1C45.78,99.36,45.7,98.67,44.7,98.65Zm-1.34,4.27a1,1,0,0,0-1.11-1.17c-.79,0-1.3.26-1.26,1.13,0,.71.15,1.38,1.15,1.26C43.07,104.31,43.36,103.78,43.36,102.92Zm2.84-14c0,1,.6,1,1.25,1,.82.08,1.12-.37,1.14-1.13s-.19-1.26-1-1.12C46.63,87.59,46.22,88,46.2,88.9Zm.23-3c.09.6.13,1.29,1.06,1.23s1.14-.53,1.11-1.33-.25-1.16-1.06-1.08S46.32,85.13,46.43,86Zm-2-1.18c-.88,0-1.08.53-1.11,1.32s.64,1.07,1.23,1c.78,0,.86-.74.93-1.51A.92.92,0,0,0,44.45,84.77Zm-3.49,4c0,.81.37,1,1,1,.87,0,1.13-.4,1.13-1.23s-.46-1-1.15-.92C41.13,87.5,41,88,41,88.75Zm.95,3.61c.6,0,1.17-.11,1.24-.93s-.4-.86-.94-.89-1.2,0-1.26,1C40.82,92.13,41.31,92.35,41.91,92.36Zm3-1.92c-.7,0-.89.37-.89,1s0,1,.77,1,1-.35.89-1.08C45.87,90.76,45.63,90.46,45,90.44ZM43.21,94c0,.06-.08.13-.06.19s.08.15.12.23l.09-.22Z" transform="translate(-2.6 -9.14)" fill="#f33c2c"/>
  <path d="M125.62,59.9a.15.15,0,0,1,0,.07H123v-.12H123a7.11,7.11,0,0,0-2.48,1.07,2.21,2.21,0,0,1-1.48.37c-5.27,0-10.54,0-15.81,0a2.59,2.59,0,0,1-1.59-.41,6.79,6.79,0,0,0-2.49-1q-1.17,0-2.34,0c-.7.27-1.53.17-2.14.67A3.94,3.94,0,0,1,92,61.3c-4,0-8-.13-11.93,0a14.62,14.62,0,0,1-7.3-1.49h-.05a.29.29,0,0,1,0,.09c-.73-.06-1.5.22-2.19-.23h-.48c-2.09,1-2.21,1.35-1.31,3.66a5.41,5.41,0,0,1,.26,2c0,4.73,0,9.47,0,14.21a9.79,9.79,0,0,0,.12,2c.61,2.93.69,5.92,1,8.87.37,3.2.79,6.39,1.15,9.59.31,2.76.62,5.52,1,8.28.44,3.3.7,6.64,1.15,9.94s.7,6.32,1.05,9.47c.25,2.25.65,4.48.91,6.73.11,1,.61,1.24,1.53,1.23q7.93,0,15.86,0c1,0,1.31-.38,1.44-1.31.5-3.65,1-7.3,1.57-11,.62-4.25,1.08-8.51,1.84-12.73a2,2,0,0,0,0-.73c.51,2,.24,4.11.69,6.12.56,2.44.74,5,1.09,7.42.49,3.42,1.32,6.78,1.72,10.22a3.93,3.93,0,0,0,.39,1.12,1.26,1.26,0,0,0,1.3.83h16.33a1.07,1.07,0,0,0,1.25-1.1c.11-1.23.16-2.47.36-3.68.84-5,1.06-10,1.81-15,.58-3.88.8-7.82,1.37-11.72.33-2.24.57-4.5.75-6.75.27-3.45.85-6.86,1.15-10.31.29-3.21.82-6.39.8-9.62q0-6.33,0-12.66a2.92,2.92,0,0,1,.61-2.24V61.15C127.15,60.17,126.32,60.11,125.62,59.9ZM89.68,86.48c-.31,3-.71,6-1.08,8.93-.4,3.13-.6,6.28-1,9.4-.34,2.4-.32,4.84-.56,7.25-.16,1.63-.47,3.24-.72,4.87a11.28,11.28,0,0,1-.5-3c-.48-4.47-.51-9-1.15-13.45a19.56,19.56,0,0,1-.23-3.33c.11-4.45-1-8.82-.83-13.28.06-1.58-.71-3.17-.4-4.8.49-2.48,1.11-4.91,3.18-6.66.4-.34.61-.44,1.05,0A9.53,9.53,0,0,1,90.17,78C90.64,80.85,90,83.64,89.68,86.48Zm22.23-1.14a8,8,0,0,0-.34,2,85,85,0,0,1-1.32,10.42c-.33,1.71,0,3.5-.31,5.23-.63,3.28-.25,6.65-.8,9.92-.29,1.75-.27,3.53-.73,5.53a5,5,0,0,1-.42-1.68c-.27-4.63-.68-9.24-1-13.86a75.55,75.55,0,0,0-.51-7.57c-.68-4.11-.51-8.28-1.2-12.38a12.71,12.71,0,0,1,1.89-9.18c1.39-2.16,2.49-2,3.71.25a11.09,11.09,0,0,1,1.59,5.7C112.37,81.57,112.54,83.51,111.91,85.34Z" transform="translate(-2.6 -9.14)" fill="#f33c2c"/>
  <path d="M314.82,134.57a37.71,37.71,0,0,1-1.55-5l-4.13-13.24c-.77-.76-.65-1.86-1-2.77a16.72,16.72,0,0,1-1.14-4.42l-.1-.12c-.74-.85-.58-2-.77-3,0,0,0,0,0-.06.29-.65.09-1.38.42-2,.88-1.8,1.14-3.84,1.94-5.66.51-1.17.36-2.58,1.33-3.57l2.91-9.63a10.52,10.52,0,0,1,1.11-3.66c.4-.92.09-1.09-.59-1.24s-1.09-.23-1-1h-.15a.76.76,0,0,1-.74-.56l-.06.05c-.83-.31-.74-1-.75-1.69,0-2.86,0-5.71,0-8.56,0-1.83-.56-2.35-2.39-2.07a17.55,17.55,0,0,1-1.75.17l-.59,0a96.16,96.16,0,0,1-10.19-2.48,51.55,51.55,0,0,0-5.49-1.75c-.73-.17-1,0-1.12.63a2.69,2.69,0,0,0,0,.4c0,.18,0,.37,0,.55V64a2.24,2.24,0,0,1-.36,1.43c-.37.45-1.05.45-2.06,0a.34.34,0,0,1-.12-.12,1.61,1.61,0,0,1-.37-1.16,3.82,3.82,0,0,0-.1-1.58.8.8,0,0,0-.13-.21c-.8.08-.37.71-.46,1.09-.15.66.33,1.47-.31,2a1.28,1.28,0,0,0-.41,1.14c0,1.65-.12,1.73-1.85,1.77h0a1,1,0,0,0-.21.76c0,1.78.06,3.57-.1,5.33s-.15,3.61-1.42,5.08l-.05,0-.37.37-.1.1c-.22,3.38,0,6.76,0,10.14q0,22,0,43.94c0,.95.25,1.19,1.18,1.17,4.12,0,8.24,0,12.37,0l.09-.13a1.18,1.18,0,0,0,.15-.63q0-9.36,0-18.72c0-.87,0-1.75.11-2.62,0-.26.12-.57.47-.58s.33.23.37.41c.52,1.89,1,3.77,1.5,5.68.58,2.36,1,4.74,1.64,7.1.77,3.08,1.56,6.15,2.16,9.28l.1.06a.76.76,0,0,0,.33.13q6.66,0,13.33,0C314.83,135.27,315,135,314.82,134.57ZM290.34,72.68c.59,0,1,.18,1,1s-.46.7-1,.67c-.7.15-.75-.27-.75-.82S289.74,72.63,290.34,72.68Zm.4,29.16c.3-.46.88-.36,1.39-.2l.11,0c.5,1.5.24,1.86-1.3,1.79a.45.45,0,0,1-.1-.14A1.27,1.27,0,0,1,290.74,101.84Zm.89-8.89c.84-.06.8.6.82,1a.82.82,0,0,1-.95.93c-.58,0-1-.32-.88-1C290.55,93.11,291,93,291.63,93Zm0-.94c-.74.14-1-.26-1-.92s.28-.9.85-.94c.74-.05,1,.49,1,1S292.33,92.18,291.63,92Zm.64-8.55a1,1,0,0,0-.06.16c-.67-.07-1.71.52-1.6-.92.1-1.27,1.05-.52,1.61-.69l.1.12C292.65,82.57,292.42,83,292.27,83.46Zm-2.36,5.22c-.07.67-.47.68-1,.72s-.74-.25-.71-.76,0-.74,0-1.11v0h0C289.11,87.5,290.08,87.24,289.91,88.68Zm-.34,9h0l-1,0h0c-.54-1.14-.44-1.82.31-1.88.33,0,.83-.17,1,.22A1.44,1.44,0,0,1,289.57,97.7ZM287.66,70c.51,0,1,0,.8.74a1.25,1.25,0,0,1,0,.31v0a.39.39,0,0,1-.11.25h0a1,1,0,0,1-.7.15c-.51,0-.9,0-.9-.72S287.11,70,287.66,70Zm-2.7.06c.66-.12.9.08.91.73s-.4.67-.89.69-.82-.09-.82-.75S284.5,70,285,70.05Zm-2,17.88a1.15,1.15,0,0,1,1.48-.16v0l0,1.25a0,0,0,0,0,0,0h0a.94.94,0,0,1-1.38,0A.83.83,0,0,1,282.92,87.93Zm.13,14a.91.91,0,0,1,1.34,0v0c0,.42,0,.85,0,1.27l-.18.16a.79.79,0,0,1-1.14-.1h0C282.71,102.79,282.58,102.32,283.05,101.91Zm.73,5.29c.69-.06.65.4.63.87.12.74-.38.68-.88.69s-.79-.14-.78-.73C282.76,107.28,283.25,107.25,283.78,107.2Zm-.06,4.44c-.47,0-.85,0-.86-.68a.87.87,0,0,1,.91-1c.66-.06.63.43.66,1S284.34,111.68,283.72,111.64Zm.41-16.86c-.32.27-.62,0-.88-.13-.76-.45-.5-1,0-1.45.32-.06.66-.22.95,0l.06,0,.13.13C284.4,93.83,284.6,94.37,284.13,94.78Zm-.29-10.7a1.52,1.52,0,0,1-.53-.06,1.29,1.29,0,0,1-1-1.38.76.76,0,0,1,0-.15h0c.08-.82.72-.94,1.43-1a1.39,1.39,0,0,1,.56.07h0c.39.13.6.47.61,1C284.93,83.6,284.61,84.06,283.84,84.08ZM285,79.86c-.62.06-.79-.28-.81-.86,0-.79.61-.63,1-.67s.69.35.67.85S285.51,79.94,285,79.86Zm2.15,14.61c-.48.66-1,.49-1.55.1-.07,0-.14-.1-.21-.15,0-.37,0-.73.05-1.1l.14-.07c1.19-.6,1.54-.37,1.67,1.07Zm-.34-15.16c0-.64.14-1,.85-.93.43,0,.86-.09.85.63s-.17,1.08-.86,1C287,80.12,286.81,79.88,286.79,79.31ZM289.05,115c-1,.16-1.32-.28-1.33-1.26s.31-1.39,1.36-1.4,1.33.46,1.34,1.43S290,115.12,289.05,115Zm2.46-2.83c-1,0-1.56-.21-1.36-1.32-.18-1.14.47-1.35,1.39-1.36s1.46.37,1.47,1.39S292.47,112.15,291.51,112.14Zm13.25-32.88c-4.33.3-4.36-.17-5.34,4.76l-3.05,11.89a2.33,2.33,0,0,1-.11.28,24.63,24.63,0,0,1-.89,2.8l-.14.27a1.27,1.27,0,0,1-.12.23.25.25,0,0,1-.17.16s-.07,0-.08,0a3.55,3.55,0,0,1-.1-1.3c0-5.48,0-11,0-16.45a2.87,2.87,0,0,0-.27-1.74,10.15,10.15,0,0,1-1.39-5.81c0-1.86-.28-3.71-.36-5.57a.87.87,0,0,0-.16-.26h0a.19.19,0,0,0-.13-.07c-1.48-.16-1.59-1.2-1.54-2.36a1.09,1.09,0,0,0-.15-.56.08.08,0,0,1,0,0h-.21c-1-.41-.65-1.22-.41-1.91s.88-.41,1.38-.24c1,.32,2,.66,2.94,1l11.67,3.35a7.92,7.92,0,0,1,3.08.57V78.57l-.07,0a5.72,5.72,0,0,1-3.51.67A2.89,2.89,0,0,0,304.76,79.26Z" transform="translate(-2.6 -9.14)" fill="#fefefe" stroke="#000" stroke-miterlimit="10" stroke-width="0.25"/>
  <path d="M262.21,55l.05.22c0,.37.07.73.08,1.1m1.49,15.65A2.43,2.43,0,0,1,264,73v.74M269.38,111a2.94,2.94,0,0,1-.35-.44.1.1,0,0,1,0,0,2,2,0,0,1-.24-.49l-.07-.08,0,0-.24-.34-.46-.63-.05-.07,0,0h0v0l-.05,0L264.6,107h0a3.25,3.25,0,0,1-.7-.4h0l0,0c-.17-.12-.46-.15-.46-.42s.28-.35.51-.38a5.31,5.31,0,0,0,1.59-.16h0c1-.57,2.24-.88,2.92-1.92a.35.35,0,0,0,.05-.08.57.57,0,0,0,.08-.13,5.82,5.82,0,0,0,1.17-2.56,32.85,32.85,0,0,0-.21-13.08c0-.13-.08-.25-.13-.38a.74.74,0,0,0,0-.14,13.15,13.15,0,0,0-2-3.63l-1-.91-1.14-.78-.44-.3h0a.57.57,0,0,1-.11-.11l-.11-.12a1.05,1.05,0,0,1-.28-.19c-.3-.3-.24-.74-.24-1.15,0-1,0-2.09,0-3.14s0-2.1,0-3.15l-.18-1.84a1,1,0,0,0-.21-.3,1.1,1.1,0,0,0-.35-.22,1.59,1.59,0,0,1-.48-.31,1.84,1.84,0,0,1-.46-1.43c0-1.91,0-3.81,0-5.72,0-1.39,0-2.79,0-4.18v-.24c0-.77,0-1.54,0-2.31,0-.32,0-.63,0-.94L262.21,55a.36.36,0,0,0,.21-.24,1.13,1.13,0,0,0-1.49-.59,42.45,42.45,0,0,1-7,1.08c-1.82.16-3.67,0-5.5.13-1.44.07-1.86.59-1.86,2q0,3.82,0,7.65c0,.57,0,.95-.81,1-2,.07-2.31.4-2.32,2.43,0,1.06,0,2.12,0,3.19,0,.92,0,1.85,0,2.78S243.12,76,242,75.9a19,19,0,0,0-2.5,0,4.73,4.73,0,0,0-.84,0,.63.63,0,0,0-.43.38c-.47.31-.25.79-.25,1.19,0,2.92,0,5.84-.06,8.76l-4.81,1.15-3.83.92-1.61.38-.24.07a1,1,0,0,1-1.18-1,1.27,1.27,0,0,0-.21-.6l-.27-.32-.42-.82-.31-.37-1.49-1.47a1.23,1.23,0,0,1-.08-1.75l.08-.09a0,0,0,0,0,0,0,3.77,3.77,0,0,0,.38-.57l.06-.09a.3.3,0,0,1,.08-.08l.36-.47h0l.23-.3,0-.06.64-.81.21-.28.31-.44,1.46-2h0l.07-.09.69-1,.11-.15.27-.36,1.6-1.83c.58-.5,1.1-1.21.5-1.8s-1.09.25-1.56.63c-.06.05-.11.12-.16.17l-.47.49-.93.75-1.29,1.16-1.6,1.69-1,.68-.87.79-.73.67-.81.69-1.1,1h0c-.46.35-.94.16-1.41,0a8.39,8.39,0,0,1-1.27-.38h0l-.09,0-1.64-.49-1.75-.52v0c-.29-4-.88-7.91-1.06-11.88a28.13,28.13,0,0,0-.62-3.35.52.52,0,0,0-.52-.52.6.6,0,0,0-.74.44,4.25,4.25,0,0,0-.12.94c-.13,4.39-.76,8.73-1.26,13.08l0,.25c-.18,1.47-.31,1.47-1.93,1.56-.31,0-.65-.06-.9.21-1.08.29-2.1.87-3.28.71l-2.44-1.86h0a6.47,6.47,0,0,0-.73-1l-1.43-1h0s0,0,0,0L196.8,75.1h0s0,0,0,0l-.7-1c-.39-.33-.63-.85-1.19-1-.09-.44-.53-.54-.78-.84a.84.84,0,0,0-1.24-.2c-.33.29-.22.81,0,1.19a3.47,3.47,0,0,0,.56.59,4.88,4.88,0,0,0,1.13,1.69A24.4,24.4,0,0,0,197,78.91l.49.74c.22.32.43.65.64,1a2.38,2.38,0,0,0,.78.94c.22.36.3.81.69,1.06l.05.84a1.39,1.39,0,0,0-.72.73,4,4,0,0,0-1.48,1.88l-.26.42-.45.78h-2.41l-5.68,0c-.81-.86-1.94-.19-2.85-.58-.05,0-.22.2-.29.33-.75,1.26.52.94,1,1.26l1.37.61.28.13,3.06,1.44,1.51.74,1,.5.87.43a1.2,1.2,0,0,1,.79,1.54,9.43,9.43,0,0,0-.07,1.77c-.06,2.52-.06,2.52-2.46,2.95-.07,0-.12.09-.18.14l-1.35.38-1.81.51-.24.07-.74.19-2.09.55a6.82,6.82,0,0,1-1.85.3c-.42,0-.75.22-.76.74s.32.64.77.65c.78,0,1.54.25,2.34.24,2.25,0,4.51,0,6.76,0h.2a1.57,1.57,0,0,1,1.16.3c0,.43,0,.87,0,1.31.09,5.85-.25,11.72.27,17.57A13.67,13.67,0,0,0,203,133.47c.11.09.21.23.34.28a22.06,22.06,0,0,0,12.48,1.08,16.09,16.09,0,0,0,7.07-3.35l0,0,.08-.08.87-.8,1.46-1.9a11,11,0,0,0,1.4-3.08.08.08,0,0,0,0,0,30.77,30.77,0,0,0,.92-6.87c0-2.5,0-5,0-7.49,0-2.85,0-5.71,0-8.56v-.28a.19.19,0,0,0,0-.07v.07l10.23-.14a.39.39,0,0,1,.1.08.3.3,0,0,1,.08.08,4.45,4.45,0,0,1,.1,1.54q0,14.24,0,28.46c0,3.09-.38,2.72,2.74,2.74q5.09,0,10.17,0c1.19,0,1.39-.22,1.43-1.39,0-.36,0-.71,0-1.07q0-10.59,0-21.17c0-1.44.29-1.68,1.7-1.42.19,0,.37.15.56.2l.24.11.14.07a3.49,3.49,0,0,1,1.22,1,.44.44,0,0,1,.08.11h0a1.45,1.45,0,0,1,.17.26,2.78,2.78,0,0,1,.19,1.51c0,5.07,0,10.15,0,15.21v4.61a3.35,3.35,0,0,0,.13,1.51s0,0,0,0l0,0c.41.49,1,.42,1.52.42h10.16c1.48,0,1.54-.06,1.54-1.55,0-6.21,0-12.42,0-18.63A9.25,9.25,0,0,0,269.38,111ZM213.54,97c0,7.8,0,15.6,0,23.4a23.15,23.15,0,0,1-.46,4.84,2.25,2.25,0,0,1-.72,1.32.53.53,0,0,0-.5.2l-.95,0c-.83-.12-1.07-.79-1.17-1.45a22.82,22.82,0,0,1-.26-3.3q0-13.74,0-27.47a11.89,11.89,0,0,1,.7-4.41l0,0a1.13,1.13,0,0,1,1.29-.88c.53,0,1.22,0,1.3.84,0,.06,0,.07,0,.07A20.3,20.3,0,0,1,213.54,97Zm14.13,5.21v0a.43.43,0,0,1,0,0Zm9.67-1.87a31.13,31.13,0,0,0-3.69-.93c-1.18-.23-2.38-.43-3.56-.68a.59.59,0,0,0-.06-.2c-.19-.48-.69-.5-1.12-.55a1,1,0,0,1-.93-1.12,15.35,15.35,0,0,0-.19-3,1.37,1.37,0,0,1,.8-1.44c.58-.38,1.37-.38,1.77-1,0,0,0,0,0,0a.07.07,0,0,0,0,0v0l.36-.15a4.2,4.2,0,0,0,1.47-.64l.1-.09A12.72,12.72,0,0,0,235.57,89l.2-.08a2.4,2.4,0,0,0,1.16-.45l0,0c0-.06.05-.13.07-.2.61-.19.91-.12.9.67,0,2.82,0,5.65,0,8.47v2.27C237.93,100.07,238,100.58,237.34,100.35Zm9.41-25.49c-.47,0-.83-.19-.77-.63a.83.83,0,0,1,.53-.79c-.64-.09-.48-.73-.66-1.14a1.68,1.68,0,0,1,.21-.18,1,1,0,0,1,1.25-.13h0a.65.65,0,0,1,.15.1c-.12.48.1,1.17-.5,1.32.44.08.49.44.56.73C247.55,74.8,247.19,74.85,246.75,74.86ZM249.53,83a.79.79,0,0,1-.86-.89c0-.6.33-.85.89-.87s.81.35.85.9S250.17,83.08,249.53,83Zm-.85-14.14c0-.55.21-.76.78-.76s.93.18.91.79-.39.72-.89.64C248.94,69.66,248.65,69.53,248.68,68.9Zm2.71,7.79c-.23-.88.49-.76.9-.82.62-.08.91.35,1,.94.06.85-.59.77-.87.83C251.26,77.81,251.51,77.14,251.39,76.69Zm1.58-4.9c.17.63.46,1.34-.47,1.59-1.12.3-.94-.67-1.11-1.27l.12-.13a1.65,1.65,0,0,1,1.44-.19h0Zm4.12,27.94a2.4,2.4,0,0,1-1,2.14.51.51,0,0,1-.48.28c-.87.87-2,.41-2.94.43-.4,0-.39-.42-.39-.74q0-5.48,0-11a1.34,1.34,0,0,1,0-.2c.06-.51.35-.76.93-.73h.08a5.23,5.23,0,0,0,.56,0,1.58,1.58,0,0,1,1.42.51,1.18,1.18,0,0,1,1.06.7,2.21,2.21,0,0,1,.75,1.9C257.05,95.28,257.06,97.51,257.09,99.73ZM255.23,80.6c-.78,0-1-.42-1-1.13s.4-.77,1-.81c.85,0,.75.48.72,1S256,80.64,255.23,80.6Zm-.16,1c.53-.09.9,0,.82.7-.06.5,0,1-.74.9s-.94-.23-1-.92S254.55,81.5,255.07,81.56Zm2.54-2.87a2,2,0,0,1-.61-.06,7.91,7.91,0,0,1,0-1.78s.4,0,.4,0c.72,0,1.4-.22,1.37,1C258.75,78.83,258.19,78.66,257.61,78.69Zm-.38-7.37c-1.43,0-1.59-.2-1.61-1.7a7.5,7.5,0,0,0-.16-2,1.37,1.37,0,0,0-1.54-1.14c-1.55,0-3.11,0-4.66,0h0c-.78,0-1.19-.3-1.2-1.06,0-2.63-.05-5.25,0-7.88,0-.73.38-1.19,1.3-1.16a51.91,51.91,0,0,0,7.27-.23,25.89,25.89,0,0,0,3.37-.61c.66-.17,1,0,1.23.31a1.87,1.87,0,0,1,.16.85c0,2.19,0,4.38,0,6.57h0c0,2.15,0,4.3,0,6.45,0,1.06-.32,1.65-1.51,1.57C259,71.25,258.11,71.32,257.23,71.32ZM260,83.9V82.38s1.61-.45,1.62.59S261.44,84.13,260,83.9Zm.83-8.79c-.57,0-.89-.11-.88-.78s.11-1,.84-1,.86.27.84.85S261.47,75.12,260.81,75.11Zm-62.12,1.64h0v0m19.85,3.83-1.27-.38m8-.31a8.12,8.12,0,0,1-.64.81M262.21,55l-1,.91M196.8,75.09h0m0,0h0m18.72,4.6,1.64.49A10.64,10.64,0,0,0,215.52,79.69Z" transform="translate(-2.6 -9.14)" fill="#fff" stroke="#000" stroke-miterlimit="10" stroke-width="0.25"/>
  <path d="M187.93,80.58c-1.35.09-1.43-.77-1.41-1.78,0-1.19,0-2.38,0-3.57,0-.39,0-.71-.55-.68s-.39.41-.39.69c0,1,.06,1.91,0,2.86-.07.78.51,2-.77,2.15s-1.08-1.1-1.35-1.87h-.14c-.42-.06-.55-.43-.58-.77-.14-1.87-.72-3.68-.81-5.55a2.44,2.44,0,0,1,.27-1.62c.25-.35.58-.73.85-.32v0a.55.55,0,0,1,.13.3h.15c.19.07.31.25.63.41a11.35,11.35,0,0,0,0-2.53c-.17-.17-.22,0-.27.06-.22.42-.41.94-1,.82s-.73-.75-.8-1.31a78.1,78.1,0,0,1-.25-9.43c0-2.39,0-2.45-2.32-1.77a75.13,75.13,0,0,1-9.82,2.27,45.43,45.43,0,0,1-7.91.69c-3.06-.09-3.06,0-3.06,3V77.66a9.72,9.72,0,0,1-.05,1.43,1.71,1.71,0,0,1-1.73,1.77c-.51.08-1,.08-1.36.59,0,0,.18.51.21.66.31,1.38.66,2.24,1,3.85,0,.05,2.6,7.89,2.68,8.25.61,2.69,1.38,5.34,2.18,8a.65.65,0,0,1,0,.19c.06.25.51,1.43.58,1.74.72,3.19,1.82,6.27,2.55,9.46a.49.49,0,0,1-.11.43l.22,0a1.77,1.77,0,0,1,.45,1.44c0,6.44,0,12.89,0,19.34a1.58,1.58,0,0,1-.06.48l.07,0a11.29,11.29,0,0,1,3-.11c2.73.1,5.45-.24,8.17-.25,1.21,0,1.19-.76,1.19-1.59,0-5.68,0-11.37,0-17a17.25,17.25,0,0,1,.84-4.3.81.81,0,0,1,.63-.65l.09,0a.06.06,0,0,1,0,0c-.28-.31-.18-.67-.12-1,.18-1.1.71-2.1.87-3.21a.61.61,0,0,1,.49-.54c-.14-1.24.48-2.3.77-3.44.46-1.84,1.15-3.61,1.58-5.46a.56.56,0,0,1,.45-.49h0a3,3,0,0,1,.76-2.6.25.25,0,0,1,.15,0c-.21-.78-.39-1.55.44-2.07a.61.61,0,0,1,0-.12,10.42,10.42,0,0,1,.32-1.84c0-.34.17-.69.57-.74,0,0,0,0,0,0a14.3,14.3,0,0,1,1-4.23c.4-1.35,1.12-2.6,1.42-4a.83.83,0,0,1,.22-.45.62.62,0,0,1,.38-.21C188.23,80.8,188.07,80.57,187.93,80.58Zm-29,3a1.5,1.5,0,0,1-1.82.05l-.07,0a1.18,1.18,0,0,1-.13-1.8,1.24,1.24,0,0,1,1.82-.13C159.51,82.28,159.26,83,158.89,83.63Zm1.58,8.68c-1,.08-1.25-.4-1.08-1.28-.18-.89.2-1.35,1.11-1.35s1.45.5,1.46,1.51S161.25,92.26,160.47,92.31Zm-1.11-6.89c.06-.75.21-1.34.89-1.32,1.21.06,1.64.6,1.63,1.54s-.77,1.08-1.46,1.1C159.56,86.77,159.3,86.24,159.36,85.42ZM163.11,98c-.9.07-1.44-.14-1.42-1.29s.74-1.36,1.69-1.39,1.34.39,1.36,1.42C164.76,98,164,98.07,163.11,98Zm2.17-21.52c.42.45.47.88-.07,1.17-.74.4-.58.7,0,1.12.32.24.59.67.31,1a1.83,1.83,0,0,1-1.85.77.91.91,0,0,1-.83-.86c0-.91.79-.86,1.46-1-.62-.22-1.54,0-1.53-1,0-.63-.3-1.37.4-1.87s0-.76-.19-1.12a1.44,1.44,0,0,1,.29-2,1.37,1.37,0,0,1,1.87.06c1,.6.39,1.54.4,2.3s-.71.58-1.35.63A4.39,4.39,0,0,1,165.28,76.5Zm-.41-6.69c.73.22.79.82.65,1.39a1.24,1.24,0,0,1-1.28,1c-.47,0-.94.17-1.31-.27a2.88,2.88,0,0,1,.83-3.34,1.48,1.48,0,0,1,1-.27c.36,0,.65.13.66.51s-.35.45-.68.46a2.6,2.6,0,0,0-1,.13Zm4.8,34a1.52,1.52,0,0,1-2.21,0,2.51,2.51,0,0,1-.2-2.07c.12-.77.78-.64,1.32-.65s1.18-.08,1.29.7A2.53,2.53,0,0,1,169.67,103.85Zm-2.24-8a1.57,1.57,0,0,1,2.22,0,2.55,2.55,0,0,1,.17,2c-.1.78-.81.7-1.41.71s-1.12,0-1.14-.72A3.33,3.33,0,0,1,167.43,95.8Zm10.27-.19c-1,0-1.4-.63-1.4-1.53s.16-1.6,1.28-1.6,1.57.31,1.58,1.52S178.85,95.62,177.7,95.61Zm-.08-8.38c-1,0-1.24-.74-1.31-1.5a1.38,1.38,0,0,1,1.43-1.62c.91,0,1.42.62,1.42,1.62S178.57,87.2,177.62,87.23Zm.58-25.36c0,1.27,0,2.54-.07,3.8s.17,1.53,1.5,1.26c.54-.28.44-.77.42-1.25s0-.91.5-.89a.76.76,0,0,1,.71.91,57.83,57.83,0,0,1-.5,6c-.29,1.61.16,3.28-.43,4.83-.44,1.18-.23,2.59-1.33,3.54a1.85,1.85,0,0,1-2,.4c-.63-.27-.49-.84-.5-1.33,0-1.75,0-3.5,0-5.25,0-.28.26-.83-.35-.79s-.46.49-.44.89a26.24,26.24,0,0,1-.37,7.91c-.49,2.13-.8,4.31-1.26,6.45s-.8,4.24-1.15,6.36c-.29,1.74-.72,3.45-.93,5.2-.06.51-.1,1-.61,1.31,0,0-.06,0-.07,0a.36.36,0,0,1,0-.11c-.15-.27-.47-.56-.44-.81.28-2.17-.81-4.16-.78-6.31a21.49,21.49,0,0,0-.81-4.84c-.46-2.14-.4-4.38-1.21-6.45a5.29,5.29,0,0,1-.1-1.65,2.11,2.11,0,0,0-.63-.26c-1.11,0-1.48-.74-1.47-1.72,0-3.36,0-6.73.13-10.09,0-.92-.1-1.31-1.13-1.21a12.71,12.71,0,0,0-2.82.14c0,3.75,0,7.49,0,11.24,0,.68.2,1.52-.95,1.54-1.53,0-2.12-.35-2.13-1.54,0-5.9,0-11.8,0-17.7a1,1,0,0,1,.29-.75c1.1-.93,2.49-.56,3.71-.69a92.16,92.16,0,0,0,10.82-1.57,30.38,30.38,0,0,1,4.89-1.12c.56-.66,1.31-.46,2-.45.5,0,.52.46.53.79.07,1.43.1,2.86.11,4.29a3.42,3.42,0,0,1-.19.93c-.07.23-.21.46-.48.44a.56.56,0,0,1-.51-.56c0-.32,0-.64-.05-1,0-.77-.52-.92-1.19-.92S178.21,61.41,178.2,61.87Zm6,26.76A1,1,0,0,1,183,89.91a1.34,1.34,0,0,1-1.51-1.5A1.32,1.32,0,0,1,183.08,87C184.12,87,184.25,87.69,184.18,88.63ZM187,83a1.5,1.5,0,0,1-2.27.83c-.55-.4-.71.06-1,.09a1.33,1.33,0,0,1-2-.33,1.16,1.16,0,0,1,.3-1.8c.7-.36,1.41-.59,2,.08.38.4.28-.08.37-.18a1.51,1.51,0,0,1,1.95-.21C187,81.77,187.07,82.4,187,83Z" transform="translate(-2.6 -9.14)" fill="#fff" stroke="#000" stroke-miterlimit="10" stroke-width="0.25"/>
  <path d="M259.11,37.23c-.37,1.1,0,2.28-.42,3.38-.18.49-.25,1-.92,1h-8.21c-2,.25-4,0-6.06.16-.93.1-.67-.78-.39-1.37a4.22,4.22,0,0,0,.46-2q0-12.76,0-25.52a5,5,0,0,0-.26-1.73,1.26,1.26,0,0,1-.39-1.4c.22-.51.77-.27,1.17-.27,4.28,0,8.57,0,12.86,0,1,0,1.41.28,1.27,1.29s.21,1.88-.24,2.78c-.08.41-.34.62-.63.27-.53-.62-1.19-.5-1.85-.51-1.45,0-2.91,0-4.37,0-.55,0-.74.16-.73.74q0,3.51,0,7c0,.68.27.89.91.9a18.84,18.84,0,0,0,3.83-.27c1.27-.38,1.63-.13,1.66,1.2a13.91,13.91,0,0,1,0,2.33c0,.34-.14.86-.68.94a1.79,1.79,0,0,1-1.22-.18c-1.06.1-2.06-.36-3.13-.28-.88.07-1.35.29-1.34,1.32.05,3.52,0,7.05,0,10.57,0,.49,0,1,.5,1.21a13.59,13.59,0,0,0,4.94-.72c.47-.25.94-.5,1.42-.74.22-.22.44-.44.68-.64s.45-.36.74-.18S259.22,36.89,259.11,37.23Z" transform="translate(-2.6 -9.14)" fill="#fff" stroke="#000" stroke-miterlimit="10" stroke-width="0.25"/>
  <path d="M237.16,9.82c-2-.06-2,0-1.87,2,.21,2.6.21,5.2.19,7.81,0,1.3-.24,1.52-1.61,1.53-1.54,0-3.08-.06-4.62,0-1.15.06-1.61-.48-1.6-1.51a48.15,48.15,0,0,1,.44-9c.09-.42.13-.89-.57-.89-1.7,0-3.4,0-5.1,0-.69,0-.65.33-.48.83a10.86,10.86,0,0,1,.58,3.57c0,3.25.06,6.5,0,9.75-.17,5.81.57,11.65-.53,17.44h5.44c.39,0,.8.09.68-.59-.84-5-.29-10-.42-15,0-.83.39-1.36,1.39-1.32,1.69.06,3.39,0,5.09,0a1.39,1.39,0,0,1,1.53,1.63c-.42,3.3-.06,6.62-.2,9.93a39.56,39.56,0,0,1-.35,4.49c-.13.76,0,.88.69.87,1.78,0,3.55,0,5.33,0,.25-2.13-.47-4.2-.47-6.32,0-5.73,0-11.47,0-17.2a44.68,44.68,0,0,1,.75-7.84A15.71,15.71,0,0,0,237.16,9.82Z" transform="translate(-2.6 -9.14)" fill="#fff" stroke="#000" stroke-miterlimit="10" stroke-width="0.25"/>
  <path d="M220,14.67a1.27,1.27,0,0,1-1.33-.21,5.63,5.63,0,0,0-3.27-.59c-.76,0-1.07.41-1,1.29.08,6,.09,12.07.12,18.11,0,4.88,0,9.77.06,14.65a7.71,7.71,0,0,0,.95,3.36c.51,1,.36,1.37-.74,1.38q-3.84,0-7.68,0c-1.06,0-1.39-.49-.83-1.38a9.37,9.37,0,0,0,1.27-5.2c0-10.16,0-20.33,0-30.49,0-1.45-.72-2.07-2.16-1.74-.63.14,1.37-.26-1.84.35-1,.3-1.29,1.27-2.12.56s-.1-1.46.21-2.16a5.63,5.63,0,0,0,.4-1.84,1.44,1.44,0,0,1,1.6-1.49h14.73c.38,0,.83-.11.91.47.31,1.21.63,2.42.91,3.63C220.28,13.81,220.51,14.38,220,14.67Z" transform="translate(-2.6 -9.14)" fill="#fefefe" stroke="#000" stroke-miterlimit="10" stroke-width="0.25"/>
</svg>
