<svg xmlns="http://www.w3.org/2000/svg" xmlns:xlink="http://www.w3.org/1999/xlink" class="svg-sprite">
    <symbol class="svg-sprite" id="arrow-down" viewBox="0 0 100 100">
        <path id="path" fill-rule="nonzero" d="M88.84 61.73l-3.89-3.89-30.71 31.18V0h-7.02v89.02L15.88 57.84 12 61.73 50.42 100z" />
    </symbol>
    <symbol class="svg-sprite" id="arrow-right" viewBox="0 0 100 100">
        <path id="path" fill-rule="nonzero" d="M61.73 12l-3.89 3.89L89.02 46.6H0v7.02h89.02L57.84 84.96l3.89 3.88L100 50.42z" />
    </symbol>
    <symbol class="svg-sprite" id="border" viewBox="0 0 13.73 1474.1">
        <path d="M13.22 45.28a9.934 9.934 0 01-.41-5.88c.25-1.1.24-2.2-.02-3.3-.26-1.09-.25-2.19-.14-3.3.06-.66.05-1.33-.03-1.99-.16-1.34-.05-2.65.22-3.96.18-.87.35-1.75.4-2.63.15-2.76.7-5.5.29-8.27a2.43 2.43 0 010-.66c.14-.99.3-1.98-.45-2.84-.13-.15-.14-.42-.16-.63-.25-2.53-.67-5.05-.51-7.62.03-.55.02-1.11-.03-1.66-.13-1.46-1.61-2.78-2.99-2.49-2.19.45-4.42.4-6.6.76C1.84.96.91 1.02 0 .85V1474.1c1.92 0 3.84.01 5.75 0 .99-.01 1.99-.11 2.97-.28.81-.14 1.46-.66 1.65-1.47.31-1.32 1.04-2.44 1.57-3.64.82-.66.87-.88.37-1.25-1.28-.95-1.75-2.18-1.74-3.74.01-1.44-.2-2.87-.25-4.31-.1-2.99-.53-5.96-.35-8.96.03-.54-.01-1.13-.19-1.63-.35-.97-.33-1.94-.3-2.95.03-1.22-.03-2.44-.09-3.65-.12-2.44-.18-4.86.29-7.29.23-1.19.26-2.42.25-3.64-.02-2.1-.24-4.21-.19-6.31.08-3.43.03-6.85-.35-10.27-.16-1.44 0-2.88.36-4.29.41-1.61 1.11-3.18 1.26-4.8.14-1.63-.26-3.3-.4-4.95-.09-.99-.06-2-.24-2.98-.54-2.87-.49-5.73.01-8.59.13-.76.21-1.55.18-2.31-.13-2.65-.22-5.31-.39-7.95-.19-2.99-.16-5.98-.16-8.97 0-1.21.21-2.42.32-3.64.1-1.1.31-2.2.29-3.3-.04-2.77.1-5.54-.32-8.3-.15-.97-.05-2 .08-2.98.22-1.67.18-3.3-.1-4.96-.38-2.2-.3-4.43.41-6.57.34-1.01.36-1.93-.08-2.9-.29-.62-.24-1.28-.15-1.96.39-2.99.31-5.97-.17-8.94-.18-1.11-.17-2.19 0-3.3.6-3.97.3-7.96.28-11.95-.47-1.74-.3-3.51-.35-5.28-.03-1.12-.03-2.19.4-3.26.2-.49.22-1.08.2-1.62a118.4 118.4 0 00-.32-5.64c-.11-1.24.02-2.43.3-3.62l.45-1.94.02.03.24-.21c-.09.06-.17.12-.26.17-.34-.57-.51-1.18-.47-1.86.15-2.54-.08-5.08.12-7.62.09-1.19-.16-2.43-.36-3.62-.15-.88-.27-1.74-.15-2.64.06-.44.09-.9.01-1.32-.58-3.3-.39-6.63-.42-9.95-.02-1.44.02-2.88.32-4.3.21-.99.16-1.97.06-2.97-.5-4.97-.47-9.96.03-14.93.3-2.99.35-5.97-.13-8.94-.21-1.32-.25-2.66-.02-3.97.31-1.76.34-3.53.35-5.3.03-3.88.08-7.76.11-11.63 0-.66.01-1.34-.09-1.99-.26-1.77-.16-3.54.01-5.3.16-1.66.15-3.32.02-4.98-.16-2.2-.41-4.4-.12-6.62.1-.75-.07-1.55-.21-2.3-.31-1.65-.37-3.31-.09-4.96.36-2.09.37-4.19.38-6.3.01-2.11.08-4.21.04-6.32-.02-1.44-.17-2.87-.26-4.3-.06-.88-.24-1.77-.15-2.64.45-4.75.39-9.52.41-14.28.01-1.66-.15-3.32-.2-4.98-.02-.88.01-1.76.05-2.65.13-2.99.46-5.98.36-8.96-.08-2.43-.1-4.87-.16-7.3-.03-1.44-.02-2.87.26-4.3.15-.74.06-1.54.03-2.31-.09-2.21-.25-4.42-.3-6.64-.05-2.2-.42-4.42.25-6.6.03-.1.01-.22.01-.33-.09-2.87.14-5.75-.17-8.62-.22-1.98-.43-3.98-.4-5.96.03-2.43.22-4.87.53-7.29.27-2.11.43-4.18.01-6.28-.22-1.09-.28-2.21-.02-3.3.26-1.1.23-2.19.15-3.3-.09-1.33-.07-2.65.08-3.98.24-2.09.29-4.2-.05-6.3-.61-3.75-.56-7.5 0-11.25.2-1.33.18-2.64-.09-3.96-.18-.87-.36-1.75-.35-2.63.04-4.43.14-8.85.23-13.28.01-.33.08-.66.1-.99.03-.44.09-.89.03-1.33-.44-3.09-.24-6.19-.22-9.29.01-1.44.12-2.91-.12-4.31-.41-2.44-.27-4.86-.05-7.28.25-2.76.35-5.52.13-8.29-.15-1.88-.12-3.76.33-5.62.24-.98.34-1.99.14-2.97-.29-1.42-.22-2.88-.5-4.28-.27-1.35-.21-2.64-.01-3.95.23-1.54.42-3.06.17-4.62-.1-.64 0-1.33.13-1.98.29-1.55.26-3.08-.08-4.62-.24-1.09-.31-2.2-.06-3.3.41-1.86.42-3.74.41-5.62-.01-2.33.05-4.65.03-6.98-.02-1.33-.05-2.67-.26-3.97-.3-1.88-.36-3.74-.14-5.63.1-.88.12-1.77.2-2.65.1-1.02-.03-1.99-.45-2.92-.77-1.7-.73-3.41-.24-5.19.86-3.13 1-6.34.86-9.56-.03-.66-.09-1.33-.09-1.99 0-.55-.07-1.15.1-1.64.55-1.52.46-3.02.18-4.58-.2-1.08-.12-2.21-.16-3.31-.03-.89.05-1.79-.1-2.65-.2-1.23-.22-2.41.15-3.61.27-.87.28-1.74-.12-2.59-.34-.73-.32-1.48-.23-2.28.15-1.21.2-2.42.27-3.64.07-1.1-.02-2.24.2-3.31.43-2.08.44-4.18.69-6.27.12-1.01.11-1.98-.31-2.93-.65-1.49-.63-3.02-.13-4.55.25-.75.28-1.48.19-2.28-.21-1.86-.38-3.74-.4-5.62-.01-1.32.24-2.64.38-3.96.15-1.43-.31-2.87.03-4.31.12-.53.12-1.1.13-1.65.01-1.66.01-3.32-.03-4.98-.03-1.33-.06-2.66-.23-3.97-.16-1.22-.29-2.41-.1-3.64.07-.43.06-.89.01-1.32-.48-4.31-.28-8.63-.39-12.95-.04-1.43.11-2.88.31-4.3.33-2.32.38-4.64.06-6.95-.26-1.88-.28-3.75.02-5.62.29-1.77.29-3.53-.07-5.29-.18-.87-.34-1.76-.16-2.64.35-1.63.46-3.29.59-4.94.05-.65.32-1.28.5-1.92l.02.03v-.72l-.02.03c-.05-.33-.2-.68-.13-.98.33-1.22.24-2.39-.1-3.6-.2-.73-.34-1.56-.21-2.29.33-1.76.05-3.54.28-5.3.08-.65.06-1.34-.08-1.98-.43-1.88-.29-3.75-.02-5.62.17-1.21.33-2.42.07-3.64-.22-1.03-.05-1.98.5-2.87.44-.71.46-1.46.24-2.24-.12-.43-.22-.86-.38-1.27a9.934 9.934 0 01-.41-5.88c.25-1.1.24-2.2-.02-3.3-.26-1.09-.25-2.19-.14-3.3.06-.66.05-1.33-.03-1.99-.16-1.34-.05-2.65.22-3.96.18-.87.35-1.75.4-2.63.15-2.76.7-5.5.29-8.27a2.43 2.43 0 010-.66c.14-.99.3-1.98-.45-2.84-.13-.15-.14-.42-.16-.63-.07-.69-.15-1.38-.23-2.07.05-.11.11-.21.15-.32.82-.66.87-.88.37-1.25a4.94 4.94 0 01-.74-.69c-.09-1.09-.14-2.18-.07-3.28.03-.55.02-1.11-.03-1.66-.07-.77-.51-1.49-1.12-1.96l-.03-.45c-.1-2.99-.53-5.96-.35-8.96.03-.54-.01-1.13-.19-1.63-.35-.97-.33-1.94-.3-2.95.03-1.22-.03-2.43-.09-3.65-.12-2.44-.18-4.86.29-7.29.23-1.19.26-2.42.25-3.64-.02-2.1-.24-4.21-.19-6.31.08-3.43.03-6.85-.35-10.27-.16-1.44 0-2.88.36-4.29.41-1.61 1.11-3.18 1.26-4.8.14-1.63-.26-3.3-.4-4.95-.09-.99-.06-2-.24-2.98-.54-2.87-.49-5.73.01-8.59.13-.76.21-1.55.18-2.31-.13-2.65-.22-5.31-.39-7.95-.19-2.99-.16-5.98-.16-8.97 0-1.21.21-2.42.32-3.64.1-1.1.31-2.2.29-3.3-.04-2.77.1-5.54-.32-8.3-.15-.97-.05-2 .08-2.98.22-1.67.18-3.3-.1-4.96-.38-2.2-.3-4.43.41-6.57.34-1.01.36-1.93-.08-2.9-.29-.62-.24-1.28-.15-1.96.39-2.99.31-5.97-.17-8.94-.18-1.11-.17-2.19 0-3.3.6-3.97.3-7.96.28-11.95-.47-1.74-.3-3.51-.35-5.28-.03-1.12-.03-2.19.4-3.26.2-.49.22-1.08.2-1.62a118.4 118.4 0 00-.32-5.64c-.11-1.24.02-2.43.3-3.62l.45-1.94.02.03.24-.21c-.09.06-.17.12-.26.17-.34-.57-.51-1.18-.47-1.86.15-2.54-.08-5.08.12-7.62.09-1.19-.16-2.43-.36-3.62-.15-.88-.27-1.74-.15-2.64.06-.44.09-.9.01-1.32-.58-3.3-.39-6.63-.42-9.95-.02-1.44.02-2.88.32-4.3.21-.99.16-1.97.06-2.97-.5-4.97-.47-9.96.03-14.93.3-2.99.35-5.97-.13-8.94-.21-1.32-.25-2.66-.02-3.97.31-1.76.34-3.53.35-5.3.03-3.88.08-7.76.11-11.63 0-.66.01-1.34-.09-1.99-.26-1.77-.16-3.54.01-5.3.16-1.66.15-3.32.02-4.98-.16-2.2-.41-4.4-.12-6.62.1-.75-.07-1.55-.21-2.3-.31-1.65-.37-3.31-.09-4.96.36-2.09.37-4.19.38-6.3.01-2.11.08-4.21.04-6.32-.02-1.44-.17-2.87-.26-4.3-.06-.88-.24-1.77-.15-2.64.45-4.75.39-9.52.41-14.28.01-1.66-.15-3.32-.2-4.98-.02-.88.01-1.76.05-2.65.13-2.99.46-5.98.36-8.96-.08-2.43-.1-4.87-.16-7.3-.03-1.44-.02-2.87.26-4.3.15-.74.06-1.54.03-2.31-.09-2.21-.25-4.42-.3-6.64-.05-2.2-.42-4.42.25-6.6.03-.1.01-.22.01-.33-.09-2.87.14-5.75-.17-8.62-.22-1.98-.43-3.98-.4-5.96.03-2.43.22-4.87.53-7.29.27-2.11.43-4.18.01-6.28-.22-1.09-.28-2.21-.02-3.3.26-1.1.23-2.19.15-3.3-.09-1.33-.07-2.65.08-3.98.24-2.09.29-4.2-.05-6.3-.61-3.75-.56-7.5 0-11.25.2-1.33.18-2.64-.09-3.96-.18-.87-.36-1.75-.35-2.63.04-4.43.14-8.85.23-13.28.01-.33.08-.66.1-.99.03-.44.09-.89.03-1.33-.44-3.09-.24-6.19-.22-9.29.01-1.44.12-2.91-.12-4.31-.41-2.44-.27-4.86-.05-7.28.25-2.76.35-5.52.13-8.29-.15-1.88-.12-3.76.33-5.62.24-.98.34-1.99.14-2.97-.29-1.42-.22-2.88-.5-4.28-.27-1.35-.21-2.64-.01-3.95.23-1.54.42-3.06.17-4.62-.1-.64 0-1.33.13-1.98.29-1.55.26-3.08-.08-4.62-.24-1.09-.31-2.2-.06-3.3.41-1.86.42-3.74.41-5.62-.01-2.33.05-4.65.03-6.98-.02-1.33-.05-2.67-.26-3.97-.3-1.88-.36-3.74-.14-5.63.1-.88.12-1.77.2-2.65.1-1.02-.03-1.99-.45-2.92-.77-1.7-.73-3.41-.24-5.19.86-3.13 1-6.34.86-9.56-.03-.66-.09-1.33-.09-1.99 0-.55-.07-1.15.1-1.64.55-1.52.46-3.02.18-4.58-.2-1.08-.12-2.21-.16-3.31-.03-.89.05-1.79-.1-2.65-.2-1.23-.22-2.41.15-3.61.27-.87.28-1.74-.12-2.59-.34-.73-.32-1.49-.23-2.28.15-1.21.2-2.42.27-3.64.07-1.1-.02-2.24.2-3.31.43-2.08.44-4.18.69-6.27.12-1.01.11-1.98-.31-2.93-.65-1.49-.63-3.02-.13-4.55.25-.75.28-1.48.19-2.28-.21-1.86-.38-3.74-.4-5.62-.01-1.32.24-2.64.38-3.96.15-1.43-.31-2.87.03-4.31.12-.53.12-1.1.13-1.65.01-1.66.01-3.32-.03-4.98-.03-1.33-.06-2.66-.23-3.97-.16-1.22-.29-2.41-.1-3.64.07-.43.06-.89.01-1.32-.48-4.31-.28-8.63-.39-12.95-.04-1.43.11-2.88.31-4.3.33-2.32.38-4.64.06-6.95-.26-1.88-.28-3.75.02-5.62.29-1.77.29-3.53-.07-5.29-.18-.87-.34-1.76-.16-2.64.35-1.63.46-3.29.59-4.94.05-.65.32-1.28.5-1.92l.02.03v-.72l-.02.03c-.05-.33-.2-.68-.13-.98.33-1.22.24-2.39-.1-3.6-.2-.73-.34-1.56-.21-2.29.33-1.76.05-3.54.28-5.3.08-.65.06-1.34-.08-1.98-.43-1.88-.29-3.75-.02-5.62.17-1.21.33-2.42.07-3.64-.22-1.03-.05-1.98.5-2.87.44-.71.46-1.46.24-2.24-.02-.5-.13-.93-.28-1.34z" />
    </symbol>
    <symbol class="svg-sprite" id="chevron-left" viewBox="0 0 8 12">
        <g id="Page-1" stroke="none" stroke-width="1" fill-rule="evenodd">
            <g id="chevron" fill-rule="nonzero">
                <path id="Shape" d="M6.1 12l1.4-1.4L2.9 6l4.6-4.6L6.1 0l-6 6z" />
            </g>
        </g>
    </symbol>
    <symbol class="svg-sprite" id="chevron-right" viewBox="0 0 8 12">
        <g id="Page-1" stroke="none" stroke-width="1" fill-rule="evenodd">
            <g id="chevron" fill-rule="nonzero">
                <path id="Shape" d="M1.5 0L.1 1.4 4.7 6 .1 10.6 1.5 12l6-6z" />
            </g>
        </g>
    </symbol>
    <symbol class="svg-sprite" id="cross" viewBox="0 0 30 29">
        <g id="Page-1" stroke="none" stroke-width="1" fill-rule="evenodd">
            <g id="Artboard" transform="translate(-3 -4)">
                <path d="M28.96 4.004l3.536 3.536-10.96 10.96 10.96 10.96-3.536 3.536L18 22.036 7.04 32.995 3.504 29.46l10.96-10.96L3.504 7.54 7.04 4.004 18 14.964l10.96-10.96z" id="Combined-Shape" />
            </g>
        </g>
    </symbol>
    <symbol class="svg-sprite" id="facebook" viewBox="0 0 504 504">
        <g id="Artboard" stroke="none" stroke-width="1" fill-rule="evenodd">
            <g id="facebook" transform="translate(116)" fill-rule="nonzero">
                <path d="M8.303 268.423h56.41v227.452c0 4.491 3.722 8.124 8.303 8.124h95.665a8.2 8.2 0 005.832-2.339 8.23 8.23 0 002.472-5.785V269.497h64.868a8.25 8.25 0 008.245-7.206l9.844-83.72a8.017 8.017 0 00-2.047-6.347 8.374 8.374 0 00-6.198-2.714h-74.712v-52.494c0-15.818 8.713-23.825 25.865-23.825h48.847a8.198 8.198 0 005.838-2.345A8.23 8.23 0 00260 85.048V8.183c0-4.492-3.703-8.124-8.303-8.124h-67.305a73.981 73.981 0 00-3.1-.06c-11.675 0-52.257 2.247-84.34 31.13C61.418 63.156 66.35 101.49 67.519 108.13v61.379H8.323a8.198 8.198 0 00-5.844 2.332A8.23 8.23 0 000 177.634v82.665c0 4.492 3.703 8.124 8.303 8.124z" id="Shape" />
            </g>
        </g>
    </symbol>
    <symbol class="svg-sprite" id="instagram" viewBox="0 0 504 504">
        <defs>
            <path id="path-1" d="M0 .159h503.841V503.94H0z" />
        </defs>
        <g id="Artboard" stroke="none" stroke-width="1" fill-rule="evenodd">
            <g id="instagram">
                <g id="Clipped">
                    <mask id="mask-2">
                        <use xmlns:xlink="http://www.w3.org/1999/xlink" xlink:href="#path-1" />
                    </mask>
                    <path d="M251.921.159c-68.418 0-76.997.29-103.867 1.516-26.814 1.223-45.127 5.482-61.151 11.71-16.566 6.437-30.615 15.051-44.621 29.056-14.005 14.006-22.619 28.055-29.056 44.621-6.228 16.024-10.487 34.337-11.71 61.151C.29 175.083 0 183.662 0 252.08c0 68.417.29 76.996 1.516 103.866 1.223 26.814 5.482 45.127 11.71 61.151 6.437 16.566 15.051 30.615 29.056 44.621 14.006 14.005 28.055 22.619 44.621 29.057 16.024 6.227 34.337 10.486 61.151 11.709 26.87 1.226 35.449 1.516 103.867 1.516 68.417 0 76.996-.29 103.866-1.516 26.814-1.223 45.127-5.482 61.151-11.709 16.566-6.438 30.615-15.052 44.621-29.057 14.005-14.006 22.619-28.055 29.057-44.621 6.227-16.024 10.486-34.337 11.709-61.151 1.226-26.87 1.516-35.449 1.516-103.866 0-68.418-.29-76.997-1.516-103.867-1.223-26.814-5.482-45.127-11.709-61.151-6.438-16.566-15.052-30.615-29.057-44.621-14.006-14.005-28.055-22.619-44.621-29.056-16.024-6.228-34.337-10.487-61.151-11.71C328.917.449 320.338.159 251.921.159zm0 45.391c67.265 0 75.233.257 101.797 1.469 24.562 1.12 37.901 5.224 46.778 8.674 11.759 4.57 20.151 10.029 28.966 18.845 8.816 8.815 14.275 17.207 18.845 28.966 3.45 8.877 7.554 22.216 8.674 46.778 1.212 26.564 1.469 34.532 1.469 101.798 0 67.265-.257 75.233-1.469 101.797-1.12 24.562-5.224 37.901-8.674 46.778-4.57 11.759-10.029 20.151-18.845 28.966-8.815 8.816-17.207 14.275-28.966 18.845-8.877 3.45-22.216 7.554-46.778 8.674-26.56 1.212-34.527 1.469-101.797 1.469-67.271 0-75.237-.257-101.798-1.469-24.562-1.12-37.901-5.224-46.778-8.674-11.759-4.57-20.151-10.029-28.966-18.845-8.815-8.815-14.275-17.207-18.845-28.966-3.45-8.877-7.554-22.216-8.674-46.778-1.212-26.564-1.469-34.532-1.469-101.797 0-67.266.257-75.234 1.469-101.798 1.12-24.562 5.224-37.901 8.674-46.778 4.57-11.759 10.029-20.151 18.845-28.966 8.815-8.816 17.207-14.275 28.966-18.845 8.877-3.45 22.216-7.554 46.778-8.674 26.564-1.212 34.532-1.469 101.798-1.469z" id="Shape" fill-rule="nonzero" mask="url(#mask-2)" />
                </g>
                <path d="M251.921 336.053c-46.378 0-83.974-37.596-83.974-83.973 0-46.378 37.596-83.974 83.974-83.974 46.377 0 83.973 37.596 83.973 83.974 0 46.377-37.596 83.973-83.973 83.973zm0-213.338c-71.447 0-129.365 57.918-129.365 129.365 0 71.446 57.918 129.364 129.365 129.364 71.446 0 129.364-57.918 129.364-129.364 0-71.447-57.918-129.365-129.364-129.365zm164.706-5.111c0 16.696-13.535 30.23-30.231 30.23-16.695 0-30.23-13.534-30.23-30.23 0-16.696 13.535-30.231 30.23-30.231 16.696 0 30.231 13.535 30.231 30.231z" id="Shape" fill-rule="nonzero" />
            </g>
        </g>
    </symbol>
    <symbol class="svg-sprite" id="logo" viewBox="0 0 424 284">
        <g id="Page-1" stroke="none" stroke-width="1" fill="none" fill-rule="evenodd">
            <g id="logo">
                <path id="Rectangle" fill="#1D1D1B" fill-rule="nonzero" d="M.68 0h422.86v283.44H.68z" />
                <path id="Rectangle" fill="#FFD600" fill-rule="nonzero" d="M5.85 110.49h412.51v167.44H5.85z" />
                <path id="Rectangle" fill="#FFF" fill-rule="nonzero" d="M16.84 122.09H92.5v2.49H16.84z" />
                <path id="Rectangle" fill="#FFF" fill-rule="nonzero" d="M16.84 139.36H92.5v2.49H16.84z" />
                <path id="Rectangle" fill="#FFF" fill-rule="nonzero" d="M16.84 156.63H92.5v2.49H16.84z" />
                <path id="Rectangle" fill="#FFF" fill-rule="nonzero" d="M16.84 173.9H92.5v2.49H16.84z" />
                <path id="Rectangle" fill="#FFF" fill-rule="nonzero" d="M16.84 191.16H92.5v2.49H16.84z" />
                <path id="Rectangle" fill="#FFF" fill-rule="nonzero" d="M16.84 208.43H92.5v2.49H16.84z" />
                <path id="Rectangle" fill="#FFF" fill-rule="nonzero" d="M16.84 225.7H92.5v2.49H16.84z" />
                <path id="Rectangle" fill="#FFF" fill-rule="nonzero" d="M16.84 242.97H92.5v2.49H16.84z" />
                <path id="Rectangle" fill="#FFF" fill-rule="nonzero" d="M16.84 260.24H92.5v2.49H16.84z" />
                <path id="Rectangle" fill="#FFF" fill-rule="nonzero" d="M317.17 122.09h90.66v2.49h-90.66z" />
                <path id="Rectangle" fill="#FFF" fill-rule="nonzero" d="M317.17 139.36h90.66v2.49h-90.66z" />
                <path id="Rectangle" fill="#FFF" fill-rule="nonzero" d="M317.17 156.63h90.66v2.49h-90.66z" />
                <path id="Rectangle" fill="#FFF" fill-rule="nonzero" d="M317.17 173.9h90.66v2.49h-90.66z" />
                <path id="Rectangle" fill="#FFF" fill-rule="nonzero" d="M317.17 191.16h90.66v2.49h-90.66z" />
                <path id="Rectangle" fill="#FFF" fill-rule="nonzero" d="M317.17 208.43h90.66v2.49h-90.66z" />
                <path id="Rectangle" fill="#FFF" fill-rule="nonzero" d="M317.17 225.7h90.66v2.49h-90.66z" />
                <path id="Rectangle" fill="#FFF" fill-rule="nonzero" d="M317.17 242.97h90.66v2.49h-90.66z" />
                <path id="Rectangle" fill="#FFF" fill-rule="nonzero" d="M317.17 260.24h90.66v2.49h-90.66z" />
                <path id="Rectangle" fill="#00833E" fill-rule="nonzero" d="M5.85 5.51h412.51v100.54H5.85z" />
                <path d="M372.16 180.9s-43.27-24.48-76.74-13.11c-33.9 11.52-56.25 16.75-79.16 16.67-20.29-.08-41-4.13-70.59-14.34-54.31-18.73-87.42 12.67-87.42 12.67l9.17 18.33-16.09 10.63 24.43 16.87-2.08 28.79 43.77-23.3-2.84-13.23c17.63-.31 39.06 5.62 46.91 7.87 5.65 1.62 36.63 12.5 58.57 12.87 11.33.2 41.32-8.15 50.83-11.66 26.17-9.67 46-7.17 46-7.17l-1.57 11.34 42.63 23-1.57-31.17 22-14.48-14.8-12.28 8.55-18.3z" id="Path" fill="#1D1D1B" fill-rule="nonzero" />
                <path d="M78.67 249.87l1.25-22.5 1.5 2.75 26.5 4-29.25 15.75zm-9.75-45l-10.75 7 19.75 12.25-9-19.25zm65.25 13c8.5 1.25 17.75 3.41 54.25 13.42 9.45 2.59 19.43 5.81 32.84 5.33 9.22-.32 20.08-2.83 33.5-6.83 17.33-5.17 31-8.83 41.41-11.17 19-4.25 50.25 4.34 50.25 4.34l19.67-40s-42.41-19.48-65.17-11.84c-31.71 10.66-48.56 18.34-86.33 18.17a153.81 153.81 0 01-47.17-7.29c-13.51-4.16-26.81-9.64-44.66-12.67-35.34-6-58.34 15.33-58.34 15.33l19.25 38.75c19.5-8.79 43.54-6.56 50.5-5.54zm219 31l-.75-25.75 18-13.75-8.5-6.75-12.75 24.75-26 6 30 15.5z" id="Shape" fill="#00833E" fill-rule="nonzero" />
                <path d="M26.3 61.75c.18 1.35.4 4.06.4 4.06s.5-2.59.73-4c.23-1.41 5.72-21.71 5.72-21.71h7.31S46 60.51 46.22 61.82c.22 1.31.64 3.94.64 3.94a25 25 0 01.36-4c1.48-7.23 5-21.63 5-21.63H59l-8.57 33.39H44l-7-25.79-1.16 4.64-6.24 21.15h-6.44l-8.71-33.35h7s4.68 20.31 4.85 21.58zm350.84 0c.17 1.35.4 4.06.4 4.06s.5-2.59.73-4C378.5 60.4 384 40.1 384 40.1h7.31s5.49 20.41 5.76 21.72c.27 1.31.64 3.94.64 3.94a23.78 23.78 0 01.36-4c1.48-7.23 5-21.63 5-21.63h6.76l-8.54 33.35h-6.48l-7-25.79-1.16 4.64-6.16 21.15H374l-8.71-33.35h7s4.71 20.35 4.85 21.62zM88 73.41h-8.07l-8.86-15.22-.07 1.87v13.35h-7.09V40.3h8.74c6.54 0 13.46.32 13.46 9.76 0 4.22-2.81 7.44-7.25 8.19L88 73.41zM70.92 54.54h1c4.23 0 7.21-1 7.21-4.65 0-3.65-3.08-4.44-7.13-4.44h-1l-.08 9.09zm27.45 12l-2.67 6.83h-7.41l12.64-33.28h8.14l12.59 33.28h-8.09l-2.49-6.83H98.37zm7-17.54c-.28-1-.67-2.85-.67-2.85s-.29 1.85-.58 2.9c-.34 1.23-3.91 11.64-3.91 11.64h9S105.65 50 105.37 49zm13.1-8.74h8.4s4.79 8.63 5.34 10c.55 1.37 1 2.84 1 2.84a23 23 0 011.05-2.82c.61-1.3 5.23-10 5.23-10h8.68l-11.12 17.77-.05 15.33h-7.4l-.06-15.33-11.07-17.79zm95.53 0h7.35s15.31 20.35 16.08 21.47a9.39 9.39 0 011.17 2.51V40.31h6.79l-.15 33.16-7-.06s-16-21.18-16.66-22.26a10 10 0 01-1-3.1v25.44H214V40.26zm45.93 5.67v7.29h12.13v5.62h-12.13v8.5h12.29v6.08h-19.44V40.3h19.68v5.62l-12.53.01zm26.52 27.49h-7.24V40.23H288c6.95 0 12.16 2.77 12.16 10.29 0 7-4.5 10.48-11.28 10.48h-2.44l.01 12.42zm.08-18.25h.47c3.83 0 5.9-.72 5.9-5s-2.47-4.54-6.08-4.54h-.29v9.54zm40.16-1.55V40.3h7.09v33.11h-7.09V59.53h-14.54v13.88h-7V40.3h7.09v13.31l14.45.01zm21.76-7.27v6.75h12.43V59h-12.43v8.56h12.43v5.88h-19.52V40.3h19.52v6l-12.43.05zm-164.67.73l3.66-3.37S184.77 40 178.3 40c-6.47 0-13.06 2.71-13.3 7.21a11 11 0 002.95 7.73s-5.2 4.21-5.2 8.71c0 4.5 1.26 7.45 5.48 9.41a16.37 16.37 0 0015.73-1.26c5.62-3.93 5.2-9.13 5.2-9.13l5.41-2.39a23.14 23.14 0 006-3.76l-3.92-5.66s-1.36 2.6-6.09 4.88a45.1 45.1 0 01-6.13 1.87s-4.22 1-4.92 2.25c0 0-.7 3.93 3.09 4.07 0 0 1.26 2.81-3 4.5s-7.92.64-9.47-2c-1.55-2.64.76-9.06 7.78-9.06V53s-6.18-.56-6.18-4.63c0-2.67 4.18-3.76 5.62-3.76 1.44 0 4.89-.21 6.43 2.46v.01z" id="Shape" fill="#FFF" fill-rule="nonzero" />
                <path d="M174.7 144.38a22.94 22.94 0 01-13.33 8.34c-22 4.2-29.27-11.85-22.87-22.68 3.18-5.38 11.8-9.17 19.54-9.17 0 0 5.73-.92 18.42 4.26 12.69 5.18 14.81 6.94 14.81 6.94s-6.39 12-6.3 18.52c0 0 7.13-8.15 8.52-10.37 1.39-2.22 3.8-5.46 4.17-6.76l3.05 2.31s-3.15 8.15-3.05 11c0 0 9.62-15.83 16.84-18.61l-2.4 6.39s-16.48 15.09-21 29.62c0 0-2.13.1 2.13-21.19 0 0-11.75 14-13.42 20.82 0 0-1.67-6.85 5.55-31.47 0 0-12.77-9.54-28-9.54a15.53 15.53 0 00-10.12 4.2 25.67 25.67 0 00-5.63 7.33c-2.64 5.4-2.49 11.55 5.17 15.53.03.02 15.55 7.47 27.92-5.47zm29.73 19c2.87-6 10.76-12.45 10.76-12.45l-2.44 6c-1.76 5.45 0 6.55 2.29 6.48 2.29-.07 7.81-5.89 7.81-5.89-1 3.17-.81 6.33 2.72 6.33 3.53 0 11.5-8.25 11.5-8.25-2.06 3.76-1.33 7.88 2.28 7.88s7.37-3.68 7.37-3.68a4.82 4.82 0 005.16 4.27c3.39-.07 12.16-6.48 14.67-6.48 3.35 0-.82 4.79-.82 4.79s4.57-3.17 2.65-5.38c-1.39-1.61-3.69-.47-11 3.54-7.07 3.89-6.48-3.47-6.48-3.47s5.74-.22 8.62-3c2.62-2.54 4.92-6.44.67-6.48-8.11-.09-13.71 10.83-13.71 10.83-9.13 6.71-6-1.4-6-1.4l6.7-14.15 40.53-.07.07-1.55-39.71-.22 3.53-7.74h-3.53l-4.35 8.18-4.27.15-.45 1.18 4 .2a78 78 0 01-3.54 7.66c-2 3.68-9.43 10.9-12.08 10.61-2.65-.29 4.62-12.34 4.62-12.34h-4.49s-1.62 4.35-3.24 6c-1.62 1.65-5.6 6.27-7.44 6.71-1.84.44 2.21-8.84 2.5-10.61.29-1.77.07-2.95-1.84-2.51-1.91.44-8.47 6-8.47 6L221.3 128l-3.61.07-16.14 35.37 2.88-.06zm53-9.43c4.86-3.31 3.46-5 2.73-5-4.82 0-7.57 6.37-7.57 6.37 1.73.68 4.81-1.32 4.81-1.32l.03-.05zm-22.77-15.53c-1.1-.53-2.57.26-3.29 1.76-.72 1.5-.4 3.13.7 3.66 1.1.53 2.57-.26 3.28-1.75s.38-3.09-.72-3.67h.03z" id="Shape" fill="#1D1D1B" />
                <path d="M220.2 228.47c-1.93 2.25-4.24 3.28-6.52 2.9-2.28-.38-4.12-2.15-5.24-5-1.44-3.56-1.76-8-.93-13s2.58-9.11 5.09-12c2-2.33 4.31-3.32 6.57-3 2.26.32 4.15 2.07 5.28 4.92a24.75 24.75 0 011 13 24.08 24.08 0 01-5.25 12.18zm-.15-12.92c1.3-7.81.78-12-1.69-12.36-2.47-.36-4.25 3.34-5.55 11.15-1.3 7.81-.78 11.8 1.66 12.21 2.44.41 4.28-3.21 5.58-11zM103.5 210c-.8 2.85-2.45 4.76-4.68 5.39-2.23.63-4.64-.21-6.85-2.27-2.81-2.61-5-6.52-6.35-11.39-1.35-4.87-1.52-9.35-.47-13 .81-3 2.5-4.83 4.7-5.45 2.2-.62 4.64.12 6.86 2.22a24.65 24.65 0 016.39 11.39 24 24 0 01.4 13.11zm-5.61-11.65c-2.13-7.62-4.36-11.15-6.76-10.48-2.4.67-2.44 4.83-.31 12.45 2.13 7.62 4.29 11 6.67 10.36 2.38-.64 2.51-4.68.4-12.34v.01zm149.22 27.55c-1 2.78-2.82 4.55-5.09 5-2.27.45-4.62-.57-6.65-2.8-2.6-2.83-4.47-6.9-5.44-11.86a24.41 24.41 0 01.56-13c1-2.88 2.88-4.62 5.12-5 2.24-.38 4.62.48 6.67 2.75a24.65 24.65 0 015.46 11.85 24.19 24.19 0 01-.63 13.06zm-4.68-12.06c-1.52-7.76-3.47-11.46-5.92-11-2.45.46-2.81 4.63-1.29 12.39 1.52 7.76 3.41 11.33 5.84 10.85 2.43-.48 2.94-4.48 1.37-12.24zm-137.95-27.7a1.91 1.91 0 00-.39-.52.93.93 0 00-.72-.19l-1.16.06-.18-4.1 9.61-.46.19 4.1-2.09.11a.57.57 0 00-.33.26 1.1 1.1 0 00-.07.73l4.46 17.54 1.77-18.37a.53.53 0 00-.11-.48.36.36 0 00-.36-.13l-1.89.12-.18-4 7.24-.42.18 4-1.38.07a1.18 1.18 0 00-.44.31.82.82 0 00-.19.44l-2.8 26.19-4.46.13-6.7-25.39zm34.83 7.17l-2.65-.18.3-4.64a3.28 3.28 0 00-1-2.25 4.68 4.68 0 00-1.93-1.07l-3.65-.28-.62 8.81 1.72.11s.35 0 .74-.53a1.83 1.83 0 00.43-1.13l.22-3.13 2 .17-.95 14-2.25-.24.17-2.42c0-.598-.03-1.195-.09-1.79-.13-.76-.63-.82-.63-.82l-1.62-.11-.75 9.53 4 .3a4.06 4.06 0 001.87-1.3 7.38 7.38 0 001.25-3.42l.24-3.15 2.37.24-.89 12.21-16.59-1.3.29-4.13 1.43.11a1.59 1.59 0 001.11-.21c.37-.24.4-1 .4-1l1.54-20.33a.83.83 0 00-.11-.56.45.45 0 00-.37-.24l-2-.19.28-4 16.62 1.21-.88 11.73zm30 21.39c-.008.222.04.442.14.64.122.188.296.337.5.43l2 .51-1 3.77-9.95-2.66 1-3.76 1.85.53a1.3 1.3 0 00.68-.17 1 1 0 00.45-.6l5.35-20a1.3 1.3 0 000-.68.62.62 0 00-.28-.45l-1.8-.58 1-3.77 8 2.13c6.18 1.66 8.08 3.58 6.16 10.75-1.5 5.61-4.62 7.75-9.62 6.41l-2.33-.6-2.15 8.1zm4.77-11.65c2.41.64 3.86-.29 4.64-3.18.89-3.33.3-5.25-1.77-5.8l-1.82-.47-2.44 9.09 1.39.36zm-26.53 5.73c-.08.286-.1.586-.06.88a1 1 0 00.61.82l1.82.4-.83 3.81-9.75-2.13.83-3.81 1.37.34c.337.11.706.058 1-.14a1 1 0 00.46-.88l4.29-19.6a2.57 2.57 0 00.1-.95.61.61 0 00-.39-.52l-2-.5.84-3.81 8.89 1.88c2.49.54 4.37.79 5.48 2.43 1.22 1.81 1.27 4 .7 6.61a8.71 8.71 0 01-4.62 6.24s1.92 1.24 1.31 4.63c-.61 3.39-2.1 7.66-.95 7.91.88.2 1.16-1.18 1.94-4.64l1.8.39c-.13.75-.25 1.45-.38 2.06-1 4.67-3 7.11-5.63 6.54a3.61 3.61 0 01-2.78-3.13c-.31-1.84.75-6 1.3-8.57.55-2.57-.49-3.67-1.59-4.08a10.89 10.89 0 00-2.06-.5l-1.7 8.32zM152 197c2.19.51 3.54-.4 4.17-3.13.73-3.12.14-4.86-1.78-5.31l-2.16-.5-2 8.54 1.77.4zm37.47 22.29a2.09 2.09 0 00-.08.88 1 1 0 00.58.84l1.81.45-1 3.79-9.68-2.43 1-3.78 1.36.38c.333.114.7.074 1-.11a1 1 0 00.48-.86l4.9-19.45c.115-.32.169-.66.16-1a.63.63 0 00-.38-.55l-1.93-.54 1-3.79 8.83 2.15c2.47.62 4.35.92 5.4 2.6 1.17 1.85 1.16 4 .5 6.62a8.7 8.7 0 01-4.8 6.1s1.88 1.3 1.17 4.67-2.33 7.59-1.19 7.88c.87.22 1.19-1.15 2.07-4.58l1.79.44c-.14.75-.29 1.44-.44 2-1.16 4.65-3.23 7-5.81 6.38a3.61 3.61 0 01-2.69-3.22c-.26-1.84.92-5.94 1.56-8.53.64-2.59-.38-3.67-1.47-4.12a10.53 10.53 0 00-2.05-.56l-2.09 8.34zm4.83-11.64c2.18.57 3.55-.3 4.27-3 .82-3.1.29-4.86-1.62-5.36l-2.15-.57-2.24 8.48 1.74.45zm92.68 4c.061.29.18.566.35.81a1 1 0 00.92.45l1.8-.48 1 3.78-9.65 2.54-1-3.77 1.37-.32c.35-.06.653-.273.83-.58a1 1 0 000-1l-5.11-19.4a2.58 2.58 0 00-.34-.89.61.61 0 00-.6-.3l-1.95.46-1-3.78 8.77-2.38c2.46-.65 4.25-1.29 6-.33 1.92 1.06 2.94 2.95 3.64 5.57a8.69 8.69 0 01-1.27 7.66s2.27.22 3.28 3.52c1.01 3.3 1.62 7.78 2.75 7.48.88-.23.5-1.58-.39-5l1.78-.47c.24.72.45 1.4.6 2 1.22 4.63.56 7.71-2 8.39a3.59 3.59 0 01-3.9-1.52c-1.12-1.49-2.06-5.65-2.75-8.23s-2.11-3-3.28-2.9a10.73 10.73 0 00-2.06.5l2.21 8.19zm-1.38-12.54c2.18-.54 3-2 2.29-4.68-.78-3.12-2.09-4.4-4-3.92l-2.15.54 2.12 8.5 1.74-.44zm-22.31 5.48l-2.1.67-.87-3s-.77-2.63-2.31-3.37a4.09 4.09 0 00-3.09-.36l-2.69.79 2.56 8.74.83-.28c.424-.2.774-.53 1-.94a2.49 2.49 0 00.11-1.88l-.72-2.48 1.93-.57 3.87 13.22-2 .72-.92-3a2.06 2.06 0 00-.74-1 1.31 1.31 0 00-1-.24l-1.18.2 2.27 8.16c.043.275.165.532.35.74.24.3.62.452 1 .4l1.66-.52 1.09 3.79-9.48 2.72-1.09-3.79 1.55-.43c.197-.11.36-.273.47-.47a1.29 1.29 0 00-.05-.84l-5.61-19.62a2.64 2.64 0 00-.5-1.15.6.6 0 00-.66-.1l-1.55.47-1.09-3.79 15.67-4.53 3.29 11.74zm37.9-18.12c-.21-.26-.78-.25-.78-.25l-1.58.12-.27-3.94 9.56-.64.28 3.94-1.82.14a.38.38 0 00-.29.18.74.74 0 00-.11.4l.9 12.92c.44 6.22.61 9.49 3.49 9.28a3.28 3.28 0 003.07-2.56c.36-1.28 0-4.13-.21-7.17l-.89-12.62a1.18 1.18 0 00-.29-.67 1.22 1.22 0 00-.76-.26l-1.81.2-.28-3.94 7.39-.55.24 3.91-1.55.15s-.54 0-.46.72c.26 2.54 1 11.6 1 11.8.29 4.07 1 7.85.19 10.84-.92 3.26-2.49 4.47-5.39 4.67a6.85 6.85 0 01-6.34-3.33c-1.43-2.42-1.72-5.64-2-9.93l-.85-12.08a3.83 3.83 0 00-.42-1.36l-.02.03zm19.18 21.38l1.51.2s.24.09.6-.25c.22-.24.35-.546.37-.87l2.43-20.59a.74.74 0 00-.11-.57.79.79 0 00-.54-.35l-1.59-.21.46-3.89 8.93 1.08.6 18.77 5.1-18.17 8.81 1-.46 4-1.2-.13a1.34 1.34 0 00-.95.38 1.71 1.71 0 00-.38 1l-2.39 20.06a1.41 1.41 0 00.05.64.73.73 0 00.51.42l1.69.18-.45 3.87-8.95-1.05.46-3.88 1.23.15a.75.75 0 00.64-.24c.163-.21.26-.464.28-.73l2.52-20.52-7.21 25-3.52-.47-.6-26.26-2.63 21.18a1.29 1.29 0 00.09.54.54.54 0 00.39.32l1.3.15-.46 3.88-7-.86.47-3.78z" id="Shape" fill="#1D1D1B" fill-rule="nonzero" />
                <path d="M219.2 226.47c-1.93 2.25-4.24 3.28-6.52 2.9-2.28-.38-4.12-2.15-5.24-5-1.44-3.56-1.76-8-.93-13s2.58-9.11 5.09-12c2-2.33 4.31-3.32 6.57-3 2.26.32 4.15 2.07 5.28 4.92a24.75 24.75 0 011 13 24.08 24.08 0 01-5.25 12.18zm-.15-12.92c1.3-7.81.78-12-1.69-12.36-2.47-.36-4.25 3.34-5.55 11.15-1.3 7.81-.78 11.8 1.66 12.21 2.44.41 4.28-3.21 5.58-11zM102.5 208c-.8 2.85-2.45 4.76-4.68 5.39-2.23.63-4.64-.21-6.85-2.27-2.81-2.61-5-6.52-6.35-11.39-1.35-4.87-1.52-9.35-.47-13 .81-3 2.5-4.83 4.7-5.45 2.2-.62 4.64.12 6.86 2.22a24.65 24.65 0 016.39 11.39 24 24 0 01.4 13.11zm-5.61-11.65c-2.13-7.62-4.36-11.15-6.76-10.48-2.4.67-2.44 4.83-.31 12.45 2.13 7.62 4.29 11 6.67 10.36 2.38-.64 2.51-4.68.4-12.34v.01zm149.22 27.55c-1 2.78-2.82 4.55-5.09 5-2.27.45-4.62-.57-6.65-2.8-2.6-2.83-4.47-6.9-5.44-11.86a24.41 24.41 0 01.56-13c1-2.88 2.88-4.62 5.12-5 2.24-.38 4.62.48 6.67 2.75a24.65 24.65 0 015.46 11.85 24.19 24.19 0 01-.63 13.06zm-4.68-12.06c-1.52-7.76-3.47-11.46-5.92-11-2.45.46-2.81 4.63-1.29 12.39 1.52 7.76 3.41 11.33 5.84 10.85 2.43-.48 2.94-4.48 1.37-12.24zm-137.95-27.7a1.91 1.91 0 00-.39-.52.93.93 0 00-.72-.19l-1.16.06-.18-4.1 9.61-.46.19 4.1-2.09.11a.57.57 0 00-.33.26 1.1 1.1 0 00-.07.73l4.46 17.54 1.77-18.37a.53.53 0 00-.11-.48.36.36 0 00-.36-.13l-1.89.12-.18-4 7.24-.42.18 4-1.38.07a1.18 1.18 0 00-.44.31.82.82 0 00-.19.44l-2.8 26.19-4.46.13-6.7-25.39zm34.83 7.17l-2.65-.18.3-4.64a3.28 3.28 0 00-1-2.25 4.68 4.68 0 00-1.93-1.07l-3.65-.28-.62 8.81 1.72.11s.35 0 .74-.53a1.83 1.83 0 00.43-1.13l.22-3.13 2 .17-.95 14-2.25-.24.17-2.42c0-.598-.03-1.195-.09-1.79-.13-.76-.63-.82-.63-.82l-1.62-.11-.75 9.53 4 .3a4.06 4.06 0 001.87-1.3 7.38 7.38 0 001.25-3.42l.24-3.15 2.37.24-.89 12.21-16.59-1.3.29-4.13 1.43.11a1.59 1.59 0 001.11-.21c.37-.24.4-1 .4-1l1.54-20.33a.83.83 0 00-.11-.56.45.45 0 00-.37-.24l-2-.19.28-4 16.62 1.21-.88 11.73zm30 21.39c-.008.222.04.442.14.64.122.188.296.337.5.43l2 .51-1 3.77-9.95-2.66 1-3.76 1.85.53a1.3 1.3 0 00.68-.17 1 1 0 00.45-.6l5.35-20a1.3 1.3 0 000-.68.62.62 0 00-.28-.45l-1.8-.58 1-3.77 8 2.13c6.18 1.66 8.08 3.58 6.16 10.75-1.5 5.61-4.62 7.75-9.62 6.41l-2.33-.6-2.15 8.1zm4.77-11.65c2.41.64 3.86-.29 4.64-3.18.89-3.33.3-5.25-1.77-5.8l-1.82-.47-2.44 9.09 1.39.36zm-26.53 5.73c-.08.286-.1.586-.06.88a1 1 0 00.61.82l1.82.4-.83 3.81-9.75-2.13.83-3.81 1.37.34c.337.11.706.058 1-.14a1 1 0 00.46-.88l4.29-19.6a2.57 2.57 0 00.1-.95.61.61 0 00-.39-.52l-2-.5.84-3.81 8.89 1.88c2.49.54 4.37.79 5.48 2.43 1.22 1.81 1.27 4 .7 6.61a8.71 8.71 0 01-4.62 6.24s1.92 1.24 1.31 4.63c-.61 3.39-2.1 7.66-.95 7.91.88.2 1.16-1.18 1.94-4.64l1.8.39c-.13.75-.25 1.45-.38 2.06-1 4.67-3 7.11-5.63 6.54a3.61 3.61 0 01-2.78-3.13c-.31-1.84.75-6 1.3-8.57.55-2.57-.49-3.67-1.59-4.08a10.89 10.89 0 00-2.06-.5l-1.7 8.32zM151 195c2.19.51 3.54-.4 4.17-3.13.73-3.12.14-4.86-1.78-5.31l-2.16-.5-2 8.54 1.77.4zm37.47 22.29a2.09 2.09 0 00-.08.88 1 1 0 00.58.84l1.81.45-1 3.79-9.68-2.43 1-3.78 1.36.38c.333.114.7.074 1-.11a1 1 0 00.48-.86l4.9-19.45c.115-.32.169-.66.16-1a.63.63 0 00-.38-.55l-1.93-.54 1-3.79 8.83 2.15c2.47.62 4.35.92 5.4 2.6 1.17 1.85 1.16 4 .5 6.62a8.7 8.7 0 01-4.8 6.1s1.88 1.3 1.17 4.67-2.33 7.59-1.19 7.88c.87.22 1.19-1.15 2.07-4.58l1.79.44c-.14.75-.29 1.44-.44 2-1.16 4.65-3.23 7-5.81 6.38a3.61 3.61 0 01-2.69-3.22c-.26-1.84.92-5.94 1.56-8.53.64-2.59-.38-3.67-1.47-4.12a10.53 10.53 0 00-2.05-.56l-2.09 8.34zm4.83-11.64c2.18.57 3.55-.3 4.27-3 .82-3.1.29-4.86-1.62-5.36l-2.15-.57-2.24 8.48 1.74.45zm92.68 4c.061.29.18.566.35.81a1 1 0 00.92.45l1.8-.48 1 3.78-9.65 2.54-1-3.77 1.37-.32c.35-.06.653-.273.83-.58a1 1 0 000-1l-5.11-19.4a2.58 2.58 0 00-.34-.89.61.61 0 00-.6-.3l-1.95.46-1-3.78 8.77-2.38c2.46-.65 4.25-1.29 6-.33 1.92 1.06 2.94 2.95 3.64 5.57a8.69 8.69 0 01-1.27 7.66s2.27.22 3.28 3.52c1.01 3.3 1.62 7.78 2.75 7.48.88-.23.5-1.58-.39-5l1.78-.47c.24.72.45 1.4.6 2 1.22 4.63.56 7.71-2 8.39a3.59 3.59 0 01-3.9-1.52c-1.12-1.49-2.06-5.65-2.75-8.23s-2.11-3-3.28-2.9a10.73 10.73 0 00-2.06.5l2.21 8.19zm-1.38-12.54c2.18-.54 3-2 2.29-4.68-.78-3.12-2.09-4.4-4-3.92l-2.15.54 2.12 8.5 1.74-.44zm-22.31 5.48l-2.1.67-.87-3s-.77-2.63-2.31-3.37a4.09 4.09 0 00-3.09-.36l-2.69.79 2.56 8.74.83-.28c.424-.2.774-.53 1-.94a2.49 2.49 0 00.11-1.88l-.72-2.48 1.93-.57 3.87 13.22-2 .72-.92-3a2.06 2.06 0 00-.74-1 1.31 1.31 0 00-1-.24l-1.18.2 2.27 8.16c.043.275.165.532.35.74.24.3.62.452 1 .4l1.66-.52 1.09 3.79-9.48 2.72-1.09-3.79 1.55-.43c.197-.11.36-.273.47-.47a1.29 1.29 0 00-.05-.84l-5.61-19.62a2.64 2.64 0 00-.5-1.15.6.6 0 00-.66-.1l-1.55.47-1.09-3.79 15.67-4.53 3.29 11.74zm37.9-18.12c-.21-.26-.78-.25-.78-.25l-1.58.12-.27-3.94 9.56-.64.28 3.94-1.82.14a.38.38 0 00-.29.18.74.74 0 00-.11.4l.9 12.92c.44 6.22.61 9.49 3.49 9.28a3.28 3.28 0 003.07-2.56c.36-1.28 0-4.13-.21-7.17l-.89-12.62a1.18 1.18 0 00-.29-.67 1.22 1.22 0 00-.76-.26l-1.81.2-.28-3.94 7.39-.55.24 3.91-1.55.15s-.54 0-.46.72c.26 2.54 1 11.6 1 11.8.29 4.07 1 7.85.19 10.84-.92 3.26-2.49 4.47-5.39 4.67a6.85 6.85 0 01-6.34-3.33c-1.43-2.42-1.72-5.64-2-9.93l-.85-12.08a3.83 3.83 0 00-.42-1.36l-.02.03zm19.18 21.38l1.51.2s.24.09.6-.25c.22-.24.35-.546.37-.87l2.43-20.59a.74.74 0 00-.11-.57.79.79 0 00-.54-.35l-1.59-.21.46-3.89 8.93 1.08.6 18.77 5.1-18.17 8.81 1-.46 4-1.2-.13a1.34 1.34 0 00-.95.38 1.71 1.71 0 00-.38 1l-2.39 20.06a1.41 1.41 0 00.05.64.73.73 0 00.51.42l1.69.18-.45 3.87-8.95-1.05.46-3.88 1.23.15a.75.75 0 00.64-.24c.163-.21.26-.464.28-.73l2.52-20.52-7.21 25-3.52-.47-.6-26.26-2.63 21.18a1.29 1.29 0 00.09.54.54.54 0 00.39.32l1.3.15-.46 3.88-7-.86.47-3.78z" id="Shape" fill="#FFF" fill-rule="nonzero" />
            </g>
        </g>
    </symbol>
    <symbol class="svg-sprite" id="spotify" viewBox="0 0 504 504">
        <g id="Artboard" stroke="none" stroke-width="1" fill-rule="evenodd">
            <g id="spotify" transform="translate(1 1)" fill-rule="nonzero">
                <path d="M250.999 0C112.379 0 0 112.378 0 251.001 0 389.631 112.379 502 250.999 502 389.633 502 502 389.63 502 251.001 502 112.387 389.633.012 250.996.012l.003-.012zm115.106 362.016c-4.496 7.374-14.147 9.712-21.52 5.186-58.932-35.998-133.12-44.15-220.49-24.189-8.42 1.918-16.812-3.357-18.73-11.78-1.927-8.422 3.327-16.814 11.767-18.733 95.613-21.853 177.626-12.438 243.788 27.995 7.373 4.526 9.71 14.148 5.185 21.521zm30.722-68.354c-5.665 9.217-17.714 12.124-26.916 6.46-67.468-41.48-170.312-53.49-250.114-29.266-10.35 3.126-21.28-2.707-24.422-13.039-3.117-10.35 2.719-21.26 13.05-24.407 91.156-27.659 204.479-14.261 281.958 33.351 9.201 5.665 12.108 17.715 6.444 26.904v-.003zm2.637-71.168c-80.896-48.05-214.363-52.468-291.6-29.026-12.402 3.762-25.518-3.24-29.276-15.643-3.759-12.409 3.237-25.516 15.648-29.287 88.662-26.916 236.052-21.715 329.188 33.576 11.18 6.621 14.837 21.03 8.213 32.17-6.594 11.156-21.041 14.834-32.16 8.21h-.013z" id="Shape" />
            </g>
        </g>
    </symbol>
    <symbol class="svg-sprite" id="twitter" viewBox="0 0 504 504">
        <g id="Artboard" stroke="none" stroke-width="1" fill-rule="evenodd">
            <g id="twitter" transform="translate(0 46)" fill-rule="nonzero">
                <path d="M490.079 7.625a206.61 206.61 0 01-65.67 25.32C405.543 12.645 378.677 0 348.945 0c-57.102 0-103.402 46.7-103.402 104.267 0 8.164.914 16.138 2.677 23.763C162.3 123.678 86.11 82.155 35.118 19.062 26.205 34.438 21.134 52.356 21.134 71.48c0 36.185 18.268 68.113 45.984 86.793-16.945-.572-32.882-5.273-46.835-13.089v1.303c0 50.513 35.654 92.67 82.93 102.265-8.662 2.383-17.796 3.654-27.244 3.654-6.678 0-13.134-.668-19.465-1.875 13.165 41.427 51.339 71.576 96.567 72.434-35.37 27.957-79.969 44.636-128.41 44.636-8.346 0-16.567-.509-24.661-1.462C45.764 395.718 100.094 413 158.488 413c190.173 0 294.173-158.91 294.173-296.725 0-4.51-.094-9.022-.315-13.502C472.598 88.128 490.142 69.765 504 48.861a205.073 205.073 0 01-59.37 16.425c21.354-12.899 37.732-33.358 45.449-57.661z" id="Shape" />
            </g>
        </g>
    </symbol>
    <symbol class="svg-sprite" id="underline" viewBox="0 0 255.16 4.37">
        <path d="M239.2 4.32c.15-.04.3-.08.44-.13.66-.25 1.33-.3 2.02-.14.38.09.75.08 1.13-.01.38-.09.75-.09 1.13-.05.22.02.46.02.68-.01.46-.05.91-.02 1.36.08.3.06.6.12.9.14.94.05 1.88.24 2.84.1.07-.01.15-.01.23 0 .34.05.68.1.97-.15.05-.04.14-.05.22-.06.87-.08 1.73-.23 2.61-.18.19.01.38.01.57-.01.5-.04.95-.55.85-1.03-.06-.29-.09-.59-.12-.89h-.08c-.14-.48-.35-.93-.5-1.4-.03-.09-.14-.21-.23-.23-.62-.15-1.22-.41-1.89-.3-.34.05-.68.06-1.02.09-.58.32-1.25.28-1.88.42a.628.628 0 01-.62-.19c-.26-.27-.58-.3-.94-.26-1.1.1-2.19.18-3.29.27-.11.01-.23.01-.34-.02-.54-.17-1.05-.06-1.54.19-.28.14-.59.19-.89.14-.53-.08-1.06-.05-1.58-.09-1.02-.08-2.04-.14-3.07-.14-.23 0-.46-.03-.68-.08-.45-.1-.9-.1-1.36-.12-.49-.02-.98-.06-1.47-.12-.31-.03-.61-.05-.91.02-.48.11-.97.18-1.44.33-.41.13-.8.18-1.23.13-.64-.08-1.28-.08-1.89.21-.25.12-.52.07-.78-.02-.14-.05-.29-.11-.41-.19-.34-.23-.7-.24-1.09-.2-.37.04-.76.04-1.13-.01-.42-.06-.83-.05-1.24.05-.52.13-1.03.25-1.57.12-.14-.03-.3-.01-.45.02-.68.12-1.36.12-2.03-.11-.11-.04-.23-.03-.34-.06-.49-.13-.97-.13-1.46 0-.4.11-.81.21-1.23.04-.44-.18-.78.26-1.21.21-.04 0-.08 0-.11-.01-.59-.13-1.21-.04-1.79-.27-.19-.08-.45-.03-.67 0-.19.03-.37.1-.54.17-.33.14-.66.17-1 .08-.89-.22-1.82-.11-2.72-.28-.07-.01-.15 0-.23.01-.76.06-1.52.1-2.27.17-.23.02-.46.04-.66-.08-.28-.17-.57-.13-.88-.09-.41.06-.83.11-1.25.11-1.56-.01-3.11.02-4.66.19-1.17.12-2.34.26-3.5.45-.52.09-1.05.18-1.58.23-.66.07-1.29-.02-1.79-.53-.35-.35-.79-.44-1.26-.39-.42.04-.83.09-1.24.18-.49.1-.98.14-1.47.08-.26-.03-.53-.05-.79-.1-.8-.14-1.59-.1-2.37.09-.22.05-.44.11-.67.15-.23.04-.46.05-.67-.07-.51-.28-1.03-.45-1.63-.34-.21.04-.45-.03-.67-.09-.49-.13-.97-.1-1.46.01-.48.1-.97.16-1.46.23-.11.02-.23.02-.34-.01-.81-.23-1.66-.21-2.49-.29-.27-.03-.53-.06-.77-.18a.838.838 0 00-.77-.03c-.75.35-1.54.39-2.34.34-.38-.02-.75-.02-1.12.1-.17.06-.37.04-.56.02-.3-.02-.61-.04-.91-.1-.35-.06-.68-.04-1 .1-.29.13-.59.13-.89.02-.36-.13-.72-.22-1.11-.13-.14.04-.31.04-.45.01-.65-.15-1.28-.07-1.92.03-.3.05-.61.03-.91.04-.64.02-1.29-.03-1.94.06-.17.02-.37-.05-.55-.11-.14-.04-.27-.13-.41-.19-.22-.09-.45-.13-.66-.02-.62.29-1.25.26-1.9.15-1.21-.2-2.42-.25-3.62.05-.45.11-.9.14-1.35.02-.33-.09-.67-.12-1.02-.05-.52.1-1.03.26-1.57.13-.17-.04-.37.05-.55.11-.58.21-1.16.34-1.78.13-.2-.07-.45 0-.68-.02-.68-.05-1.39.02-1.99-.36-.39-.24-.78-.28-1.2-.19-.63.13-1.27.24-1.91.32-.29.04-.59.16-.85.31-.46.25-.93.34-1.43.23-.49-.1-.97-.12-1.47-.01-.18.04-.39.05-.56 0-.66-.21-1.34-.23-2.03-.26-.18-.01-.24-.13-.3-.28-.18-.41-.42-.5-.8-.37-.3.1-.54.28-.77.47-.28.23-.61.3-.96.28-.19-.01-.37-.06-.56-.08-.34-.04-.68-.1-1.02-.12-.53-.03-1.06-.05-1.59-.04-.38.01-.78 0-1.13.11-.99.32-2.02.36-3.02.55-.42.08-.83.01-1.22-.18-.31-.15-.62-.29-.93-.43-.38-.17-.78-.29-1.21-.31-.3-.01-.6-.1-.89-.16-.22-.05-.43-.15-.66-.19-.39-.08-.76-.02-1.09.2-.19.13-.37.27-.56.39-.43.28-.9.38-1.42.31-.38-.05-.75-.13-1.1-.28-.17-.07-.37-.13-.55-.12-.38.02-.77-.01-1.12.16-.33.16-.66.13-1 .04-.22-.06-.45-.09-.67-.15-.34-.1-.67-.08-1.01.01-.18.05-.36.11-.55.15-.78.14-1.57.3-2.37.17-.5-.08-.98-.01-1.47.07-.26.05-.54.1-.79.06-.67-.13-1.36-.16-1.97-.51-.2-.11-.43-.16-.66-.15-.53.02-1.06.02-1.59.05-.53.03-1.08.07-1.55.32-.4.21-.76.31-1.19.2-.18-.05-.38-.03-.57-.02-.35.03-.58-.08-.71-.42-.06-.15-.21-.25-.37-.19-.62.22-1.27.18-1.91.29-.17.03-.41-.01-.54-.11-.37-.29-.73-.35-1.16-.15-.21.1-.45.08-.67.02-.38-.09-.76-.01-1.13.09-.33.09-.67.17-.97.33-.59.32-1.16.3-1.75.03-.07-.03-.15-.05-.21-.08-.66-.29-1.33-.27-2-.06-.18.06-.37.11-.53.2-.38.22-.79.27-1.21.24-.53-.04-1.06-.08-1.59-.13-.42-.04-.83-.05-1.23.14-.25.12-.51.11-.78.03-.18-.05-.37-.08-.55-.14-.3-.09-.6-.1-.9 0-.11.04-.22.06-.32.11-.26.11-.52.1-.77-.04s-.51-.13-.76-.01c-.21.1-.42.21-.65.17-.48-.09-.99-.1-1.42-.38-.31-.2-.65-.18-.99-.07-.14.05-.28.11-.42.17-.23.08-.48.09-.64-.1-.46-.54-1.02-.57-1.66-.45-.45.09-.89.17-1.31.36-.38.17-.78.31-1.17.46-.22.08-.46.12-.67.01-.47-.24-1.03-.27-1.48-.58-.12-.08-.29-.14-.43-.12-.6.06-1.19.06-1.76.37-.82.43-1.71.62-2.65.37-.22-.06-.43-.16-.65-.22-.18-.05-.37-.11-.55-.09-.37.04-.67-.03-.94-.29-.18-.17-.41-.2-.64-.15-.26.05-.51.13-.77.2-.75.2-1.51.26-2.25.02-.54-.17-1.03-.17-1.55.03-.35.13-.74.17-1.08.35-.17.09-.36.1-.56.08-1.13-.13-2.27-.24-3.4-.38-.35-.04-.67-.06-.99.12-.12.07-.3.09-.44.07-.42-.05-.82-.13-1.24-.02-.42.11-.82-.14-1.24-.12-.15 0-.3.01-.45.03-.46.06-.87.14-1.26.3-.4.16-.82.19-1.23.06A1.66 1.66 0 0043 1.26c-.19.05-.38.08-.56-.01-.28-.14-.58-.17-.89-.16-.24.01-.45-.05-.65-.17-.13-.08-.27-.15-.41-.2-.37-.12-.75-.16-1.08.13-.19.17-.4.2-.64.12a.605.605 0 00-.64.13.68.68 0 01-.64.15c-.37-.08-.74-.12-1.08-.33-.39-.25-.86-.28-1.3-.39-.36-.09-.74-.08-1.11.03-.54.16-1.11.25-1.6.58-.4.27-.85.29-1.3.08-.24-.11-.49-.2-.75-.28-.37-.11-.73-.12-1.12-.02-.77.21-1.56.3-2.36.1-.22-.06-.45-.05-.68-.05-1.06-.03-2.12-.2-3.18 0-.04.01-.08.01-.11 0a4.18 4.18 0 00-1.57.22c-.25.08-.53.15-.78.1-.42-.08-.81-.16-1.22.01-.09.04-.23 0-.33-.04-.74-.26-1.49-.26-2.25-.16-.35.04-.68.04-1.02-.04-.53-.13-1.05-.11-1.58 0-.76.17-1.51.1-2.24-.18-.36-.14-.73-.19-1.12-.15-.15.02-.31.07-.45.05C9.6.67 8.9.74 8.27 1.17c-.59.16-1.18.35-1.78.04-.21-.11-.44-.12-.67-.09-.48.07-.97.14-1.46.22-.49.08-.98.09-1.46-.06-.51-.15-1.04-.25-1.55-.37C1.31.9 1.27.88 1.24.88.58.86.12 1.06.03 1.78L0 1.99c.01.27.04.54.08.81.05.28.23.5.5.57.45.11.84.35 1.25.54.23.28.3.3.43.13.33-.44.75-.6 1.28-.6.49 0 .98-.07 1.48-.08 1.02-.04 2.04-.18 3.07-.12.19.01.39 0 .56-.07.33-.12.67-.11 1.01-.1.42.01.83-.01 1.25-.03.84-.04 1.67-.06 2.5.1.41.08.83.09 1.25.08.72-.01 1.44-.08 2.16-.06 1.18.03 2.35.01 3.52-.12.49-.06.99 0 1.47.12.55.14 1.09.38 1.65.43.56.05 1.13-.09 1.7-.14.34-.03.69-.02 1.02-.08.98-.19 1.96-.17 2.95.01.26.05.53.07.79.06.91-.04 1.82-.08 2.73-.13 1.03-.07 2.05-.05 3.07-.05.42 0 .83.07 1.25.11.38.04.76.11 1.13.1.95-.01 1.9.04 2.84-.11.33-.05.68-.02 1.02.03.57.08 1.13.06 1.7-.04.76-.13 1.52-.1 2.25.14.34.12.66.12.99-.03.21-.1.44-.08.67-.05 1.02.13 2.05.1 3.06-.06.38-.06.75-.06 1.13 0 1.36.21 2.73.1 4.09.1.6-.16 1.2-.1 1.81-.12.38-.01.75-.01 1.12.14.17.07.37.08.56.07.64-.03 1.29-.06 1.93-.11.42-.04.83.01 1.24.1.22.05.44.1.67.15l-.01.01.01-.01c.2-.12.41-.18.64-.16.87.05 1.74-.03 2.61.04.41.03.83-.06 1.24-.13.3-.05.6-.09.9-.05.15.02.31.03.45 0 1.13-.2 2.27-.13 3.41-.14.49-.01.99.01 1.47.11.34.07.68.06 1.02.02 1.71-.17 3.41-.16 5.12.01 1.03.1 2.04.12 3.06-.05.45-.07.91-.08 1.36-.01.6.11 1.21.12 1.82.12 1.33.01 2.66.03 3.99.04.23 0 .46 0 .68-.03.61-.09 1.21-.06 1.82 0 .57.06 1.14.05 1.71.01.76-.06 1.51-.14 2.27-.04.26.03.53-.03.79-.07.57-.1 1.14-.13 1.7-.03.72.12 1.44.13 2.16.13.72 0 1.44.03 2.16.01.49-.01.98-.06 1.48-.09.3-.02.61-.08.91-.05 1.63.15 3.26.13 4.89.14.57 0 1.14-.05 1.71-.07.3-.01.6 0 .91.02 1.02.05 2.05.16 3.07.12.83-.03 1.67-.03 2.5-.05.49-.01.98-.01 1.47.09.25.05.53.02.79.01.76-.03 1.52-.09 2.27-.1.75-.02 1.52-.14 2.26.09.03.01.08.01.11 0 .98-.03 1.97.05 2.96-.06.68-.07 1.36-.15 2.04-.14.83.01 1.67.08 2.5.18.72.09 1.43.15 2.15 0 .37-.07.76-.1 1.13-.01.38.09.75.08 1.13.05.45-.03.91-.02 1.36.03.72.08 1.44.1 2.16-.02 1.29-.21 2.57-.19 3.86 0 .46.07.91.06 1.36-.03.3-.06.6-.12.9-.12 1.52.01 3.03.05 4.55.08.11 0 .23.03.34.04.15.01.31.03.45.01 1.06-.15 2.12-.08 3.19-.08.49 0 1 .04 1.48-.04.84-.14 1.66-.09 2.49-.02.95.09 1.89.12 2.84.04.64-.05 1.29-.04 1.93.11.33.08.68.12 1.02.05.49-.1.99-.08 1.47-.17.46-.09.9-.07 1.36 0 .53.08 1.05.15 1.59.06.22-.04.46 0 .68.04.53.1 1.06.09 1.58-.03.38-.08.75-.1 1.13-.02.64.14 1.28.14 1.93.14.8 0 1.6.02 2.39.01.45-.01.91-.02 1.36-.09.64-.1 1.28-.12 1.93-.05.3.03.61.04.91.07.35.03.68-.01 1-.15.58-.26 1.17-.25 1.78-.08 1.07.29 2.17.34 3.28.29.23-.01.46-.03.68-.03.19 0 .39-.03.56.04.52.19 1.03.16 1.57.06.37-.07.76-.04 1.14-.05.3-.01.61.02.91-.03.42-.07.83-.08 1.24.05.3.09.6.1.89-.04.25-.12.51-.11.78-.08.41.05.83.07 1.25.09.38.02.77-.01 1.13.07.71.15 1.43.15 2.15.24.35.04.68.04 1-.11.51-.22 1.03-.22 1.56-.04.26.09.51.1.78.07.64-.07 1.28-.13 1.93-.14.45-.01.91.08 1.36.13.49.05.98-.1 1.48.01.18.04.38.04.56.04.57 0 1.14.01 1.71-.01.45-.01.91-.02 1.36-.08.42-.05.83-.1 1.25-.03.15.02.3.02.45 0 1.48-.17 2.96-.1 4.44-.13.49-.01.99.04 1.47.11.8.11 1.59.13 2.38.02.64-.09 1.29-.1 1.93.01.61.1 1.21.1 1.81-.03.3-.06.6-.12.9-.05.56.12 1.13.16 1.69.2.22.02.44.11.66.17l-.01.01h.25-.25l.01-.01h.23c.11-.02.23-.07.33-.04.42.11.82.08 1.23-.03.25-.07.54-.12.79-.07.6.11 1.21.02 1.82.1.22.03.46.02.68-.03.64-.15 1.29-.1 1.93-.01.42.06.83.11 1.25.03.35-.07.68-.02.98.17.26.15.51.16.78.08z" />
    </symbol>
    <symbol class="svg-sprite" id="youtube" viewBox="0 0 504 504">
        <g id="Artboard" stroke="none" stroke-width="1" fill-rule="evenodd">
            <g id="youtube" transform="translate(0 76)" fill-rule="nonzero">
                <path d="M253.146.001c14.332.026 158.582.539 196.05 10.797 21.588 5.814 38.609 22.84 44.421 44.436 10.578 38.664 10.393 118.41 10.381 121.584v.315c-.01 4.653-.312 82.78-10.381 121.049-5.812 21.595-22.833 38.622-44.421 44.436-39.44 10.383-197.198 10.383-197.198 10.383S94.655 353 54.8 342.203c-21.588-5.814-38.61-22.841-44.421-44.437C.519 260.681.026 184.616 0 177.101v-1.199c.025-7.477.518-83.187 10.378-120.668C16.19 33.64 33.627 16.197 54.8 10.382 92.268.52 236.518.026 250.85.002zm-51.382 100.916v151.167L332.953 176.5l-131.189-75.583z" id="Combined-Shape" />
            </g>
        </g>
    </symbol>
    <svg xmlns="http://www.w3.org/2000/svg" viewBox="0 0 451.66 126.7" id="NYDeli-logo">
        <path d="M454.26-98.78c-.8-1.3-.78-2.83-1.05-4.25a10.35,10.35,0,0,0-4.63-6.89,2,2,0,0,1-1.06-1.82,15.15,15.15,0,0,0-.32-4c-.15-.59-.31-1.16-.93-1.42h-.71a1.41,1.41,0,0,0-.77,1.47c0,1.16,0,2.31,0,3.47a2.41,2.41,0,0,1-1.25,2.23,13.85,13.85,0,0,0-3.57,3.59c-1.56,2.2-1.76,4.93-2.35,7.43a8,8,0,0,0,.63,6.26,2.06,2.06,0,0,1,.19,1q0,10.26,0,20.54c0,2.7,0,5.4-.12,8.1-.07,2.22.17,4.45.16,6.68,0,4.39,0,8.77,0,13.15,0,1.74.24,1.93,1.91,1.94H452.1c1.19,0,1.43-.25,1.51-1.45,0-.48,0-1,0-1.44V-63.54q0-14.1,0-28.21a4.09,4.09,0,0,1,.61-2.73ZM443.44-98c.72,0,1.26.15,1.22,1.13,0,.8-.29,1.1-1,1-.83.13-1.19-.1-1.2-1S442.72-98,443.44-98Zm-3.73,1c0-.77.5-1,1.11-.86s1.28-.08,1.25.94-.55,1-1.27,1.05C439.9-95.81,439.7-96.34,439.71-97Zm2.67,2.71c1-.08.84.61.9,1.21a.79.79,0,0,1-1,1c-.54-.08-1.36-.14-1-1.07C441.14-94.17,441.66-94.25,442.38-94.3Zm.85,29.22c0,.57-.11,1-.84.87-.55-.1-1.18,0-1.09-1,.06-.75.33-1.27,1-1.3C443.2-66.5,443.25-65.79,443.23-65.08Zm-1.12-2c-.43.06-.86-.09-.81-1,0-.74.33-1.06,1-1s1.2.24,1.18,1.13S443-67.08,442.11-67.12Zm2.77,5.76c-.62,0-1-.22-1-1s.17-1.25.9-1.25,1.34.23,1.23,1.21C446.22-61.43,445.5-61.4,444.88-61.36Zm.05-19.48c-.88.06-1-.38-1-1.15s.27-1.07,1-1,1.26.18,1.08,1.07C446.17-81,445.65-80.89,444.93-80.84Zm.09-2.91c-.89.18-1.14-.19-1.13-1s.2-1.16,1-1.09c.63.06,1.22.1,1.17,1.05C446-84,445.88-83.54,445-83.75Zm-.14,14.15c-.82,0-.91-.46-1-1.11-.08-.84.34-1.18,1.06-1.16s1.2.18,1.07,1C446.09-70,445.73-69.62,444.88-69.6ZM446-68c0,.8-.49,1-1.11,1s-1-.19-1-.94.18-1,.93-1S446-68.84,446-68Zm-1.22-7.16c-.72,0-.89-.55-.91-1.24,0-.89.5-.94,1.27-.92.58-.06.88.2.89,1C446.08-75.32,445.46-75.15,444.81-75.15ZM445-89.27c-.56,0-1.43,0-1.28-1.11-.15-.87.39-1.13,1.08-1.13s1.29.06,1.3,1.08C446.07-89.57,445.59-89.22,445-89.27Zm2.57,17c-.61,0-1.25-.34-1-1.16-.07-.84.32-1.17,1-1.16s1.1.33,1.09,1.08S448.25-72.27,447.54-72.31Zm0-5.19c.64,0,1.13.32,1,1s-.07,1.41-1,1.41-1.09-.48-1-1.26C446.35-77.19,446.77-77.51,447.54-77.5Zm.07-3.38c-.89.17-1.15-.22-1.13-1s.11-1.15.95-1.1,1.28.13,1.22,1.1C448.61-81.14,448.42-80.68,447.61-80.88Zm2.27-2.81c-.89,0-1-.43-1-1.17,0-1,.59-1,1.3-1,.89,0,1,.41.81,1.07C451.18-83.83,450.71-83.69,449.88-83.69Zm.26,3.52c.9-.09.92.45.81,1.08.2.94-.22,1.12-1.06,1.14-1.07,0-.92-.73-1-1.33C448.78-80.28,449.53-80.11,450.14-80.17Zm0,16.25a1.17,1.17,0,0,1-1.22-1.27c0-.76.26-1.32,1.18-1,1-.27.9.47.92,1.09S450.83-63.88,450.12-63.92Zm-.25-2.79c-1,0-.92-.7-.95-1.24,0-.74.26-1.23,1.17-1.23,1.12,0,.85.77.91,1.36C451.18-66.82,450.67-66.74,449.87-66.71Zm.22-25.17a1.13,1.13,0,0,1-1.23-1.23c0-.83.27-1.4,1.21-1.21,1.05-.25.91.51,1,1.13S450.84-91.9,450.09-91.88Zm1.68-3.82c-.74,0-1.32-.2-1.31-1.23s.43-1.16,1.43-1.13c.47.06,1.19.07,1.2,1.1S452.52-95.71,451.77-95.7Z" transform="translate(-2.6 167.96)" fill="#174cfe"/>
        <path d="M431.67-53c-1.54,0-3.08,0-4.62,0s-1.87-.25-1.89-1.85v-.72q0-20.67,0-41.35c0-.67,0-1.35,0-2s-.11-1.35-.94-1.43-1,.61-1.16,1.43c0-3.73,0-7.27,0-10.81a2.94,2.94,0,0,0-.34-2,4.93,4.93,0,0,1-1.14-3.41.86.86,0,0,0-.94-1c-.61,0-1.09.2-1.22.88-.06.27-.06.55-.1.83-.18,1.1-.68,1.45-1.93,1.41-1,0-1.42-.53-1.43-1.49,0-.64,0-1.3-.57-1.75h-.71a2,2,0,0,0-.56,1.75,2.6,2.6,0,0,1-.81,2,4.14,4.14,0,0,0-1.34,3.53c0,3.2,0,6.4,0,9.87-.21-.9-.48-1.46-1.22-1.37s-.7.84-.69,1.41c.11,5.93.12,11.86.13,17.8,0,1.07-.13,2.14-.14,3.21,0,3.9.15,7.8.12,11.69,0,3.07,0,6.13-.09,9.2-.17,4.89.19,9.79.08,14.69,0,.9.3,1.16,1.18,1.14,3-.09,6.07,0,9.11-.11,3.91-.11,7.83,0,11.74,0a1.22,1.22,0,0,0,1-.26V-52.17A1.42,1.42,0,0,0,431.67-53Zm-11.28-54.38c.59,0,.69.54.64,1.16-.15.43-.24,1-1,.94s-.9-.7-.87-1.32S419.89-107.36,420.39-107.35Zm-.19,2.63c.55,0,.88.41.83,1.27,0,.25,0,.86-.71.84s-1.16-.21-1.2-1A1,1,0,0,1,420.2-104.72Zm-5.41-5.45c.45.1,1.1.09,1.32.79-.36.45-.68,1-1.28,1s-.83-.48-.86-1A.72.72,0,0,1,414.79-110.17Zm-.06,5.61c.49.18,1.07.19,1.09.88s-.4.91-.94.94a.87.87,0,0,1-.92-.94C413.94-104.19,414.29-104.43,414.73-104.56Zm-.85,9.44c.74,0,.85.52.75,1.08s.06,1.34-.84,1.21c-.59-.08-1.29,0-1.33-1S413.18-95.07,413.88-95.12Zm-.22,16.39c-.9.16-1.15-.25-1.17-1s.26-1.1,1.08-1.11,1.1.28,1.09,1.11S414.5-78.52,413.66-78.73Zm.13-8.52c-.67-.07-1.41.1-1.32-1.08.07-.86.28-1.15,1.16-1.16s1.09.51,1,1.29C414.76-87.53,414.56-87.15,413.79-87.25ZM414-98.08c0-.49.25-1,.86-.92s1,.29,1,1-.46.72-1,.72S413.9-97.44,414-98.08Zm2.24,16.48c-.92.29-1-.49-1.06-1,0-.73.31-1.15,1.2-1.12s1.16.26,1.16,1.16S417-81.5,416.21-81.6Zm.34-19.16c-.06-.64.43-.94.94-1s.72.45,1,.81c-.17.5-.28,1-.89,1S416.61-100.2,416.55-100.76ZM420.09-80c.07,1-.34,1.35-1.23,1.34s-1.18-.26-1.16-1.16a1.06,1.06,0,0,1,1.21-1.2C419.49-81,420.3-81,420.09-80Zm-1-18c0-.76.48-1,1.16-1s.72.56.79,1-.2,1-.82.88S419.1-97.24,419.11-98Zm2.35,5.65c1.08,0,1.17.75,1.19,1.36A1,1,0,0,1,421.37-90c-1.07.18-1-.51-1.06-1.24C420.26-92.09,420.6-92.33,421.46-92.37Zm.24,13.67c-.86,0-1.11-.47-1.15-1.26s.31-1.13,1.09-1.14a.91.91,0,0,1,1,1.08C422.6-79.52,422.64-78.69,421.7-78.7Zm-.12-5.53c-.65,0-1.31-.2-1.27-1.18s.52-1.24,1.4-1.18c.78-.15,1,.37,1,1S422.43-84.18,421.58-84.23Z" transform="translate(-2.6 167.96)" fill="#174cfe"/>
        <path d="M406.5-95.19v-1.2a1.28,1.28,0,0,0-1.33-.78,21.07,21.07,0,0,1-2.25,0c-.54-.07-.74-.38-.28-.79a1.35,1.35,0,0,0,.57-1.55c-.29-.76-1-.74-1.61-.71a2.18,2.18,0,0,1-2.25-1.4c-1.66-3.47-3.62-6.78-5.29-10.24a3,3,0,0,0-1.35-1.45h-.95a5.68,5.68,0,0,0-2.12,2.8c-1.48,2.9-3,5.8-4.51,8.67a2.74,2.74,0,0,1-2.51,1.67c-1.25,0-1.67.8-1.11,2,.4.82,0,1-.64,1s-1.19,0-1.78.06-.95.14-1.13.7-.21,1.27.26,1.55c1.52.88,1.33,2.29,1.33,3.68v46c0,.72,0,1.44,0,2.15.07,1.48.39,1.77,1.88,1.81,1.7,0,3.39-.11,5.09-.12h16.63a7.66,7.66,0,0,1,.83,0c1,.09,1.35-.41,1.37-1.34.05-1.91,0-3.82,0-5.73,0-.72,0-1.43.07-2.15.19-1.62-.35-2.27-2-2.32-2.26-.07-4.52,0-6.77,0-1.4,0-1.71-.3-1.73-1.66q-.06-3.94,0-7.89c0-1.41.34-1.71,1.8-1.74,1.66,0,3.32,0,5,0,1.46-.07,1.92-.52,2-2,.08-2.55.07-5.1,0-7.65,0-1.36-.36-1.67-1.71-1.73-1.78-.08-3.57,0-5.35,0-1.35,0-1.66-.34-1.69-1.72,0-2,0-4,0-6,0-1.6.3-1.89,1.87-1.92,1.94,0,3.88.06,5.82,0,1.15-.06,1.45-.39,1.53-1.54a24.67,24.67,0,0,0,0-3.1C404.11-92.12,404.39-94.06,406.5-95.19Zm-20.25,9.55c-.05.56-.12,1.41-1,1.4-.64,0-1.1-.45-.89-1.1,0-.71-.08-1.26.79-1.26C385.89-86.6,386.31-86.25,386.25-85.64Zm-1.47-6.69c.7,0,1.09.35,1.05,1.09,0,.57,0,1.15-.82,1.14s-1.19-.15-1.13-1.06C383.92-91.82,383.93-92.36,384.78-92.33Zm-.86,6.68c.08,1.09-.66,1.17-1.4,1.21s-.94-.48-1-1.15c-.07-1,.46-1,1.18-1S384-86.58,383.92-85.65Zm-1.21-3.82c.94,0,1,.48,1,1.19.05,1-.47,1-1.18,1-.91,0-1.1-.42-.95-1.12C381.41-89.42,382-89.44,382.71-89.47Zm-.22,16.27c-.79,0-1-.54-.95-1.21s.36-1.2,1.12-1.17,1,.57,1,1.35S383.21-73.2,382.49-73.2Zm1.33-3.56a1.28,1.28,0,0,1-1.15.69,1.11,1.11,0,0,1-1-1.71c.47-.66.23-1,0-1.58a1.27,1.27,0,0,1,.21-1.53c.42-.37.89-.21,1.33,0,.84.36.49,1,.35,1.61s-.6,1.1.23,1.56C384.07-77.58,384-77,383.82-76.76Zm1.35-6.95c.67-.09,1,.22.89.88s-.1,1.16-.86,1.15-1-.45-1.05-1.15S384.51-83.8,385.17-83.71Zm.08,7.62c-.77.09-.83-.5-.87-1.11s.18-1,.94-1c.45.12,1,.26,1,1A1,1,0,0,1,385.25-76.09Zm2.49-7.66c.64,0,1.06.09,1,.87s-.19,1.23-1,1.2-1.14-.29-1-1.11C386.59-83.61,387-83.75,387.74-83.75Zm.23,7.53c-.64-.06-1.23,0-1.22-1s.62-.92,1.23-1,.89.46.9,1S388.73-76.16,388-76.22Zm-.06-11c-.9,0-1.48-.2-1.33-1.11-.08-1,.45-1.35,1.12-1.32s1.48.34,1.45,1.34C389.12-87.53,388.67-87.27,387.91-87.24Zm.1-2.92c-.65,0-1.25-.17-1.23-1s.55-1.09,1.21-1.18a.93.93,0,0,1,1.16,1C389.21-90.47,388.66-90.26,388-90.16Z" transform="translate(-2.6 167.96)" fill="#174cfe"/>
        <path d="M374.83-78.69H375a.53.53,0,0,0,0-.13S374.87-78.78,374.83-78.69Zm.13-.12s-.09,0-.13.12h.23C375-78.76,375-78.8,375-78.81Zm0,0s-.09,0-.13.12h.23C375-78.76,375-78.8,375-78.81Zm-19.53-28.43s0,.07.12.11v-.23Q355.42-107.3,355.43-107.24Zm0,0s0,.07.12.11v-.23Q355.42-107.3,355.43-107.24Zm0,0s0,.07.12.11v-.11Zm19.51,19.87a8.65,8.65,0,0,0-.76-3.56,10.64,10.64,0,0,0-5.67-4.82,28.38,28.38,0,0,0-6-1.15c-1.79-.26-2.06-.46-2.08-2.32,0-2.14,0-4.29,0-6.43,0-1.29-.2-1.5-1.41-1.57a.2.2,0,0,0-.08-.14h-3.33v.23c-.08,0-.12-.07-.12-.11s0-.08.12-.12h-2.62a.25.25,0,0,1,0,.12h-.06c-1.11-.07-1.31.71-1.4,1.54-.11,1.07,0,2.15,0,3.22,0,1.91-.3,2.2-2.23,2.21-1.59,0-3.17,0-4.76,0-1.86.06-2.32.53-2.32,2.38q0,27.65,0,55.29c0,1.27,0,1.3,1.36,1.32,4.44.08,8.87-.18,13.31-.12,2.34,0,4.68.1,7,0s4.45.08,6.53-.93c2.28-1.1,4-2.6,4.47-5.3.25-1.42-.06-2.86.28-4.25V-78.68h-.23c0-.09.09-.13.13-.12s.06,0,.1.13v-5.74A18.16,18.16,0,0,1,374.94-87.37ZM347.57-97.84c.62,0,1.1.07,1.08.88s-.47.91-1.14.81c-.79.24-.91-.39-1-.92C346.44-97.84,347-97.82,347.57-97.84ZM346.5-94.4c.1-.69.33-1.23,1.19-1.27s.9.59.94,1.15c.07.85-.55.81-1.21.78C347.06-93.78,346.37-93.5,346.5-94.4Zm-1.65-1c.58-.05.82.41.84.92s-.35.82-.88.71c-.57,0-1,0-1-.72S344.35-95.34,344.85-95.38ZM345-90c.53-.08.83.28.68.82s0,1.26-1,1c-.77.06-1-.45-1-1.13C343.78-90.22,344.54-89.92,345-90Zm-.15,7.22a.83.83,0,0,1-.81-1c.07-.61.59-.68,1.05-.68s.68.33.69.81C345.64-83.14,345.45-82.68,344.86-82.76Zm.14-2.63a1.06,1.06,0,0,1-1.06-1.06c-.09-.64.56-.66,1-.77s.75.24.9.65C345.65-86,345.66-85.42,345-85.39Zm2.84-2.75c-.61,0-1.39.1-1.37-1,0-.81.37-1,1.07-1s1.11.28,1.11,1.12C348.67-88.57,348.51-88.08,347.84-88.14Zm-.38-2.74c-.75.16-1-.17-1-1s.53-1.08,1.2-1.08,1,.42,1,1.16C348.66-90.87,348.15-90.81,347.46-90.88Zm2.92-2.38c-.86,0-1.16-.53-1.06-1.42-.11-.73.2-1,1.05-1s1.12.52,1.13,1.27S351.18-93.23,350.38-93.26Zm2.83-2.61c-1,0-1-.59-1-1.36-.24-.9.51-1.19,1.11-1.22s1.09.55,1.06,1.29S354.15-95.9,353.21-95.87Zm4.62-7.63c.66,0,.72.65.79,1.13.09.63-.34.82-.89.79s-1.06,0-1-.81A1.05,1.05,0,0,1,357.83-103.5Zm-1.13-1.86c0-.77.52-.93,1.08-1,.73-.07.79.57.83,1s-.23.92-.93.83C357.14-104.45,356.68-104.56,356.7-105.36Zm4.53,49a21.19,21.19,0,0,1-.58,3.58c-.24,1.34-2.5,2.28-3.62,2.06-.74-.14-.74-.77-.75-1.3,0-1.43,0-2.87,0-4.3v-12.9h0c0-5.33,0-10.67,0-16,0-.67-.36-1.73.38-1.94a3.58,3.58,0,0,1,3.1.26,3.58,3.58,0,0,1,1.45,3.07Q361.3-70.1,361.23-56.37Z" transform="translate(-2.6 167.96)" fill="#174cfe"/>
        <path d="M34.62-96.34a6.1,6.1,0,0,1-.75-3.31c0-5,0-10,0-15a11.67,11.67,0,0,0-.07-1.67,1,1,0,0,0-1-1c-.64,0-.89.43-1,1a15.44,15.44,0,0,0-.06,1.67v14.56a11.42,11.42,0,0,1-.05,1.55,1.41,1.41,0,0,1-1.49,1.39c-.79,0-1.58,0-2.37,0-1.52,0-1.81-.3-1.82-1.82,0-2.62,0-5.25,0-7.87A13.3,13.3,0,0,0,26-108.4c-.08-.58-.35-1-1-1s-.89.44-1,1a9.72,9.72,0,0,0-.07,1.43q0,3.93,0,7.88a2.09,2.09,0,0,1-1,2.13,1.38,1.38,0,0,0-.62,1.22c-.06.67,0,1.35-.05,2,0,2.7.13,5.41-.09,8.11a27.77,27.77,0,0,0,0,5.47,28.3,28.3,0,0,1,0,4.51c-.82-2.1-1.45-4.23-2.12-6.35-1.05-3.33-2.19-6.63-3.22-10s-2.11-6.64-3.16-10c-1.31-4.2-2.66-8.4-4.05-12.57a2.61,2.61,0,0,0-1.12-1.62,1.9,1.9,0,0,1-1-1.89c0-1.39-.07-2.78,0-4.17A1.42,1.42,0,0,0,7-123.57h-1a1.87,1.87,0,0,0-.56,1.63c0,1.31,0,2.62,0,3.93S5.17-116.4,4-116.27s-1.38.72-1.38,1.68c0,1.43,0,2.86,0,4.28.06,4.81,0,9.61.06,14.41.09,17.75,0,35.49,0,53.23,0,1.26.08,1.38,1.31,1.38H12.2c3.18,0,3.19,0,3.19-3.14,0-6.09,0-12.18,0-18.41.85,2.72,1.6,5.32,2.34,7.91,1.17,4.08,2.28,8.17,3.54,12.23a1.8,1.8,0,0,0,2,1.41H33.57a1.11,1.11,0,0,0,1.17-.6V-71h-.21c0-.07.06-.11.09-.11s.08,0,.12.12V-96.34ZM5.85-100.4A1,1,0,0,1,7-99.15c0,.6,0,1.35-.91,1.32-.76,0-1.48-.1-1.21-1.14C4.79-99.77,4.91-100.4,5.85-100.4Zm.24,16.71c-.8.09-1.24-.14-1.24-1s.54-1.12,1.29-1.13,1.13.23,1,.94S7.13-83.41,6.09-83.69Zm0-2.91c-.72-.07-1.24-.25-1.25-1.19s.58-1,1.29-.95,1.12.07,1.06.82S7.08-86.5,6.08-86.6Zm-.15-5.69c-.79.16-1.11-.11-1.1-1s.4-1.15,1.21-1.17,1.12.33,1.14,1.13S6.76-92.12,5.93-92.29ZM7.18-104.9c-.07.76-.2,1.46-1.23,1.17-.93.18-1.11-.26-1.12-1.11s.5-1.08,1.26-1.06S7.25-105.7,7.18-104.9Zm-1.11-4.34c-.8.07-1.23-.14-1.24-1.09s.46-1.21,1.27-1.27c1-.08,1,.66,1.09,1.31C7.27-109.47,6.85-109.13,6.07-109.24ZM6-112.08c-.92,0-1.11-.34-1.14-1.19,0-1,.55-1.06,1.29-1,1-.18,1.08.49,1.1,1.22C7.25-112.17,6.67-112.12,6-112.08Zm2.77,3.54c.95,0,1.12.55,1.1,1.31,0,1-.84.79-1.39.84-.83.07-.78-.59-.75-1.21C7.56-108.4,8-108.54,8.74-108.54Zm-.16,17c.63.06,1.12.25,1.11,1s-.28,1.11-1.11,1.14-1-.38-.87-1C7.64-91.1,7.7-91.65,8.58-91.56Zm.15,10.75c-.87,0-1-.4-1.06-1.16s.16-1.29,1.09-1.26c.78,0,1.19.31,1.07,1.17C10-81.21,9.57-80.86,8.73-80.81Zm.06-17.08c-.94,0-1-.75-1-1.41,0-.49.11-1.15.81-1.08s1.58.15,1.3,1.32C10.05-98.18,9.63-97.86,8.79-97.89Zm2.5.59c.81,0,1.36.18,1.37,1.18S12-95,11.26-95,10-95.21,10-96.16,10.51-97.33,11.29-97.3Zm0,13.63c-.92,0-.93-.64-1-1.29-.06-.88.51-.94,1.11-.91s1.25.16,1.21,1A1.15,1.15,0,0,1,11.27-83.67Zm.34-5.71c-.92,0-1-.49-1-1.17a.87.87,0,0,1,1-1c.65,0,1.29.14,1.09,1.07C12.82-89.62,12.39-89.42,11.61-89.38Zm3.29-1.21c-.06.59.14,1.25-.85,1.2s-.87-.53-.9-1.17c0-.8.3-1,1-1S14.89-91,14.9-90.59Z" transform="translate(-2.6 167.96)" fill="#f33c2c"/>
        <path d="M51.2-113.36h.95c1.21.55,1.56,1.79,2.07,2.81,1.49,3,3.2,5.82,4.63,8.83a2.08,2.08,0,0,0,2.08,1.46,1.69,1.69,0,0,1,.69.13c1.12.36,1.34,1,.67,2-.5.72-.43.9.43,1,.63,0,1.26,0,1.89,0a1.28,1.28,0,0,1,1.33.79v1.19c-1.8,1.09-2.21,2.75-2.06,4.72a26.8,26.8,0,0,1,0,3.47c-.09,1.24-.44,1.6-1.7,1.67-1.86.09-3.72,0-5.58,0S54.4-85,54.39-83s0,3.75,0,5.62c0,1.34.38,1.69,1.72,1.73,1.7,0,3.4,0,5.1,0,1.54.06,1.89.4,1.93,1.94.06,2.51.07,5,0,7.53,0,1.42-.46,1.83-1.88,1.89-1.66.08-3.33,0-5,0-1.5,0-1.86.36-1.88,1.82q0,3.82,0,7.65c0,1.4.39,1.82,1.77,1.79,2.26,0,4.5.3,6.76.3,1.46,0,1.84.4,1.88,1.85q.1,4,0,8c0,1.25-.24,1.43-1.51,1.43H40.74c-1.24,0-1.41-.19-1.49-1.47,0-.71,0-1.43,0-2.15q0-23.11,0-46.25c0-1.37.07-2.72-1.36-3.57-.49-.29-.39-.92-.28-1.43s.59-.59,1-.64c.67-.07,1.35,0,2-.08.84-.11,1-.45.65-1.21-.57-1.24-.37-1.7,1-1.82a2.92,2.92,0,0,0,2.48-1.76c1.7-3.23,3.41-6.47,5-9.76A5.6,5.6,0,0,1,51.2-113.36ZM47.39-81.53c.85,0,1.21-.36,1.21-1.19s-.38-1.43-1.29-1.47-1.15.51-1.1,1.3S46.47-81.55,47.39-81.53Zm-4,1.46c0-.82-.19-1.35-1.2-1.31S41-80.79,41-80s.44,1.19,1.27,1C43.19-78.74,43.41-79.22,43.37-80.07Zm1.35-4.12c-1,0-1.1.58-1.14,1.39s.19,1.31,1.16,1.29,1.1-.41,1-1.13C45.78-83.44,45.71-84.15,44.72-84.19Zm2.64,8.32c.88.06,1.21-.66,1.21-1.42s-.26-1.2-1.13-1.18S46.15-78,46.22-77C46-76.16,46.69-75.9,47.36-75.87Zm-5.24-2.61c-.94,0-1.19.46-1.12,1.2s-.17,1.5,1,1.47c1,0,1.21-.55,1.15-1.45C43.19-77.94,43.13-78.47,42.12-78.48Zm2.58,0c-1,0-1.08.63-1.12,1.42s.28,1.21,1.12,1.21,1.18-.32,1-1.1C45.78-77.74,45.7-78.43,44.7-78.45Zm-1.34,4.27c0-.77-.32-1.16-1.11-1.17S41-75.09,41-74.22c0,.7.15,1.38,1.15,1.26C43.07-72.79,43.36-73.33,43.36-74.18Zm2.84-14c0,1,.6,1,1.25,1,.82.08,1.12-.37,1.14-1.13s-.19-1.26-1-1.12C46.63-89.51,46.22-89.13,46.2-88.21Zm.23-3c.09.61.13,1.3,1.06,1.24s1.14-.53,1.11-1.33-.25-1.16-1.06-1.08S46.32-92,46.43-91.16Zm-2-1.17c-.88,0-1.08.53-1.11,1.31,0,.94.64,1.07,1.23,1,.78,0,.86-.74.93-1.51A.92.92,0,0,0,44.45-92.33Zm-3.49,4c0,.81.37,1,1,1,.87,0,1.13-.4,1.13-1.24s-.46-1-1.15-.91C41.13-89.61,41-89.11,41-88.35Zm.95,3.6c.6,0,1.17-.1,1.24-.92s-.4-.86-.94-.89-1.2,0-1.26,1C40.82-85,41.31-84.75,41.91-84.75Zm3-1.91c-.7,0-.89.37-.89,1s0,1,.77,1,1-.35.89-1.08C45.87-86.34,45.63-86.64,45-86.66Zm-1.74,3.58c0,.06-.08.13-.06.18a.63.63,0,0,0,.12.23l.09-.22Z" transform="translate(-2.6 167.96)" fill="#f33c2c"/>
        <path d="M125.62-117.2a.15.15,0,0,1,0,.07H123v-.12H123a7.11,7.11,0,0,0-2.48,1.07,2.21,2.21,0,0,1-1.48.37c-5.27,0-10.54,0-15.81,0a2.59,2.59,0,0,1-1.59-.41,6.79,6.79,0,0,0-2.49-1H96.8c-.7.27-1.53.17-2.14.67a3.94,3.94,0,0,1-2.67.79c-4,0-8-.13-11.93,0a14.62,14.62,0,0,1-7.3-1.49h-.05a.29.29,0,0,1,0,.09c-.73-.06-1.5.22-2.19-.23h-.48c-2.09,1-2.21,1.35-1.31,3.66a5.41,5.41,0,0,1,.26,2c0,4.73,0,9.47,0,14.21a9.79,9.79,0,0,0,.12,2c.61,2.93.69,5.92,1,8.87.37,3.2.79,6.39,1.15,9.59.31,2.76.62,5.52,1,8.28.44,3.3.7,6.64,1.15,9.94s.7,6.32,1.05,9.47c.25,2.25.65,4.48.91,6.73.11.95.61,1.24,1.53,1.23q7.93,0,15.86,0c1,0,1.31-.38,1.44-1.31.5-3.65,1-7.3,1.57-10.95.62-4.25,1.08-8.51,1.84-12.73a2,2,0,0,0,0-.73c.51,2,.24,4.11.69,6.12.56,2.44.74,5,1.09,7.42.49,3.42,1.32,6.78,1.72,10.22a3.93,3.93,0,0,0,.39,1.12,1.26,1.26,0,0,0,1.3.83h16.33a1.07,1.07,0,0,0,1.25-1.1c.11-1.23.16-2.47.36-3.68.84-5,1.06-10,1.81-15,.58-3.88.8-7.82,1.37-11.72.33-2.24.57-4.5.75-6.75.27-3.45.85-6.86,1.15-10.31.29-3.21.82-6.39.8-9.62q0-6.33,0-12.66a2.92,2.92,0,0,1,.61-2.24v-1.43C127.15-116.93,126.32-117,125.62-117.2ZM89.68-90.62c-.31,3-.71,6-1.08,8.93-.4,3.13-.6,6.28-1,9.4-.34,2.4-.32,4.84-.56,7.25-.16,1.63-.47,3.24-.72,4.87a11.28,11.28,0,0,1-.5-3c-.48-4.47-.51-9-1.15-13.45A19.56,19.56,0,0,1,84.4-80c.11-4.45-1-8.82-.83-13.28.06-1.58-.71-3.17-.4-4.8.49-2.48,1.11-4.91,3.18-6.66.4-.34.61-.44,1.05,0a9.53,9.53,0,0,1,2.77,5.59C90.64-96.25,90-93.46,89.68-90.62Zm22.23-1.14a8,8,0,0,0-.34,2,85,85,0,0,1-1.32,10.42c-.33,1.71,0,3.5-.31,5.23-.63,3.28-.25,6.65-.8,9.92-.29,1.75-.27,3.53-.73,5.53a5,5,0,0,1-.42-1.68c-.27-4.63-.68-9.24-1-13.86a75.55,75.55,0,0,0-.51-7.57c-.68-4.11-.51-8.28-1.2-12.38a12.71,12.71,0,0,1,1.89-9.18c1.39-2.16,2.49-2.05,3.71.25a11.09,11.09,0,0,1,1.59,5.7C112.37-95.53,112.54-93.59,111.91-91.76Z" transform="translate(-2.6 167.96)" fill="#f33c2c"/>
        <path d="M314.82-42.53a37.71,37.71,0,0,1-1.55-5l-4.13-13.24c-.77-.76-.65-1.86-1-2.77A16.72,16.72,0,0,1,307-68l-.1-.12c-.74-.85-.58-2-.77-3,0,0,0,0,0-.06.29-.65.09-1.38.42-2,.88-1.8,1.14-3.84,1.94-5.66.51-1.17.36-2.58,1.33-3.57L312.75-92a10.52,10.52,0,0,1,1.11-3.66c.4-.92.09-1.09-.59-1.24s-1.09-.23-1-1h-.15a.76.76,0,0,1-.74-.56l-.06,0c-.83-.31-.74-1-.75-1.69,0-2.86,0-5.71,0-8.56,0-1.83-.56-2.35-2.39-2.07a17.55,17.55,0,0,1-1.75.17l-.59,0A96.16,96.16,0,0,1,295.6-113a51.55,51.55,0,0,0-5.49-1.75c-.73-.17-1,0-1.12.63a2.69,2.69,0,0,0,0,.4c0,.18,0,.37,0,.55v.1a2.24,2.24,0,0,1-.36,1.43c-.37.45-1.05.45-2.06,0a.34.34,0,0,1-.12-.12,1.61,1.61,0,0,1-.37-1.16,3.82,3.82,0,0,0-.1-1.58.8.8,0,0,0-.13-.21c-.8.08-.37.71-.46,1.09-.15.66.33,1.47-.31,2a1.28,1.28,0,0,0-.41,1.14c0,1.65-.12,1.73-1.85,1.77h0a1,1,0,0,0-.21.76c0,1.78.06,3.57-.1,5.33s-.15,3.61-1.42,5.08l-.05,0-.37.37-.1.1c-.22,3.38,0,6.76,0,10.14q0,22,0,43.94c0,1,.25,1.19,1.18,1.17,4.12,0,8.24,0,12.37,0l.09-.13a1.18,1.18,0,0,0,.15-.63q0-9.36,0-18.72c0-.87,0-1.75.11-2.62,0-.26.12-.57.47-.58s.33.23.37.41c.52,1.89,1,3.77,1.5,5.68.58,2.36,1,4.74,1.64,7.1.77,3.08,1.56,6.15,2.16,9.28l.1.06a.76.76,0,0,0,.33.13q6.66,0,13.33,0C314.83-41.83,315-42.09,314.82-42.53Zm-24.48-61.89c.59,0,1,.18,1,1s-.46.7-1,.67c-.7.15-.75-.27-.75-.82S289.74-104.47,290.34-104.42Zm.4,29.16c.3-.46.88-.36,1.39-.2l.11,0c.5,1.5.24,1.86-1.3,1.79a.45.45,0,0,1-.1-.14A1.27,1.27,0,0,1,290.74-75.26Zm.89-8.89c.84-.06.8.6.82,1a.82.82,0,0,1-.95.93c-.58,0-1-.32-.88-1C290.55-84,291-84.1,291.63-84.15Zm0-.94c-.74.14-1-.26-1-.92s.28-.9.85-.94c.74,0,1,.49,1,1S292.33-84.92,291.63-85.09Zm.64-8.55a1,1,0,0,0-.06.16c-.67-.07-1.71.52-1.6-.92.1-1.27,1.05-.52,1.61-.69l.1.12C292.65-94.53,292.42-94.09,292.27-93.64Zm-2.36,5.22c-.07.67-.47.68-1,.72s-.74-.25-.71-.76,0-.74,0-1.11v0h0C289.11-89.6,290.08-89.86,289.91-88.42Zm-.34,9h0l-1,0h0c-.54-1.14-.44-1.82.31-1.88.33,0,.83-.17,1,.22A1.44,1.44,0,0,1,289.57-79.4Zm-1.91-27.71c.51,0,1,0,.8.74a1.25,1.25,0,0,1,0,.31v0a.39.39,0,0,1-.11.25h0a1,1,0,0,1-.7.15c-.51,0-.9,0-.9-.72S287.11-107.12,287.66-107.11ZM285-107c.66-.12.9.08.91.73s-.4.67-.89.69-.82-.09-.82-.75S284.5-107.15,285-107Zm-2,17.88a1.15,1.15,0,0,1,1.48-.16v0l0,1.25v0h0A.94.94,0,0,1,283-88,.83.83,0,0,1,282.92-89.17Zm.13,14a.91.91,0,0,1,1.34,0v0c0,.42,0,.85,0,1.27l-.18.16a.79.79,0,0,1-1.14-.1h0C282.71-74.31,282.58-74.78,283.05-75.19Zm.73,5.29c.69-.06.65.4.63.87.12.74-.38.68-.88.69s-.79-.14-.78-.73C282.76-69.82,283.25-69.85,283.78-69.9Zm-.06,4.44c-.47,0-.85,0-.86-.68a.87.87,0,0,1,.91-1c.66-.06.63.43.66,1S284.34-65.42,283.72-65.46Zm.41-16.86c-.32.27-.62,0-.88-.13-.76-.45-.5-1,0-1.45.32-.06.66-.22.95,0l.06,0,.13.13C284.4-83.27,284.6-82.73,284.13-82.32ZM283.84-93a1.52,1.52,0,0,1-.53-.06,1.29,1.29,0,0,1-1-1.38.76.76,0,0,1,0-.15h0c.08-.82.72-.94,1.43-1a1.39,1.39,0,0,1,.56.07h0c.39.13.6.47.61,1C284.93-93.5,284.61-93,283.84-93ZM285-97.24c-.62.06-.79-.28-.81-.86,0-.79.61-.63,1-.67s.69.35.67.85S285.51-97.16,285-97.24Zm2.15,14.61c-.48.66-1,.49-1.55.1-.07,0-.14-.1-.21-.15,0-.37,0-.73.05-1.1l.14-.07c1.19-.6,1.54-.37,1.67,1.07Zm-.34-15.16c0-.64.14-1,.85-.93.43,0,.86-.09.85.63s-.17,1.08-.86,1C287-97,286.81-97.22,286.79-97.79Zm2.26,35.66c-1,.16-1.32-.28-1.33-1.26s.31-1.39,1.36-1.4,1.33.46,1.34,1.43S290-62,289.05-62.13ZM291.51-65c-1,0-1.56-.21-1.36-1.32-.18-1.14.47-1.35,1.39-1.36s1.46.37,1.47,1.39S292.47-64.95,291.51-65Zm13.25-32.88c-4.33.3-4.36-.17-5.34,4.76l-3.05,11.89a2.33,2.33,0,0,1-.11.28,24.63,24.63,0,0,1-.89,2.8l-.14.27a1.27,1.27,0,0,1-.12.23.25.25,0,0,1-.17.16s-.07,0-.08,0a3.55,3.55,0,0,1-.1-1.3c0-5.48,0-11,0-16.45a2.87,2.87,0,0,0-.27-1.74,10.15,10.15,0,0,1-1.39-5.81c0-1.86-.28-3.71-.36-5.57a.87.87,0,0,0-.16-.26h0a.19.19,0,0,0-.13-.07c-1.48-.16-1.59-1.2-1.54-2.36a1.09,1.09,0,0,0-.15-.56.08.08,0,0,1,0,0h-.21c-1-.41-.65-1.22-.41-1.91s.88-.41,1.38-.24c1,.32,2,.66,2.94,1l11.67,3.35a7.92,7.92,0,0,1,3.08.57v10.36l-.07,0a5.72,5.72,0,0,1-3.51.67A2.89,2.89,0,0,0,304.76-97.84Z" transform="translate(-2.6 167.96)" fill="#fefefe" stroke="#000" stroke-miterlimit="10" stroke-width="0.25"/>
        <path d="M262.21-122.14l.05.22c0,.37.07.73.08,1.1m1.49,15.65a2.43,2.43,0,0,1,.18,1.1v.74m5.37,37.24a2.94,2.94,0,0,1-.35-.44.1.1,0,0,1,0,0,2,2,0,0,1-.24-.49l-.07-.08,0,0-.24-.34-.46-.63-.05-.07,0,0h0v0l-.05,0-3.17-1.8h0a3.25,3.25,0,0,1-.7-.4h0l0,0c-.17-.12-.46-.15-.46-.42s.28-.35.51-.38a5.31,5.31,0,0,0,1.59-.16h0c1-.57,2.24-.88,2.92-1.92a.35.35,0,0,0,.05-.08.57.57,0,0,0,.08-.13,5.82,5.82,0,0,0,1.17-2.56,35.39,35.39,0,0,0,.47-8.41,35.27,35.27,0,0,0-.68-4.67c0-.13-.08-.25-.13-.38a.74.74,0,0,0,0-.14,13.15,13.15,0,0,0-2-3.63l-1-.91-1.14-.78-.44-.3h0a.57.57,0,0,1-.11-.11l-.11-.12a1.05,1.05,0,0,1-.28-.19c-.3-.3-.24-.74-.24-1.15,0-1,0-2.09,0-3.14s0-2.1,0-3.15l-.18-1.84a1,1,0,0,0-.21-.3,1.1,1.1,0,0,0-.35-.22,1.59,1.59,0,0,1-.48-.31,1.84,1.84,0,0,1-.46-1.43c0-1.91,0-3.81,0-5.72,0-1.39,0-2.79,0-4.18v-.24c0-.77,0-1.54,0-2.31,0-.32,0-.63,0-.94l-.13-1.32a.36.36,0,0,0,.21-.24,1.13,1.13,0,0,0-1.49-.59,42.45,42.45,0,0,1-7,1.08c-1.82.16-3.67,0-5.5.13-1.44.07-1.86.59-1.86,2.05q0,3.83,0,7.65c0,.57,0,1-.81,1-2,.07-2.31.4-2.32,2.43,0,1.06,0,2.12,0,3.19,0,.92,0,1.85,0,2.78s-.32,1.58-1.47,1.48a19,19,0,0,0-2.5,0,4.73,4.73,0,0,0-.84,0,.63.63,0,0,0-.43.38c-.47.31-.25.79-.25,1.19,0,2.92,0,5.84-.06,8.76l-4.81,1.15-3.83.92-1.61.38-.24.07a1,1,0,0,1-1.18-1A1.27,1.27,0,0,0,226-90l-.27-.32-.42-.82-.31-.37-1.49-1.47a1.23,1.23,0,0,1-.08-1.75l.08-.09h0a3.77,3.77,0,0,0,.38-.57l.06-.09.08-.08.36-.47h0l.23-.3,0-.06.64-.81.21-.28.31-.44,1.46-2h0l.07-.09.69-1,.11-.15.27-.36,1.6-1.83c.58-.5,1.1-1.21.5-1.8s-1.09.25-1.56.63c-.06,0-.11.12-.16.17l-.47.49-.93.75L226.14-102l-1.6,1.69-1,.68-.87.79-.73.67-.81.69-1.1,1h0c-.46.35-.94.16-1.41,0a8.39,8.39,0,0,1-1.27-.38h0l-.09,0-1.64-.49-1.75-.52v0c-.29-4-.88-7.91-1.06-11.88a28.13,28.13,0,0,0-.62-3.35.52.52,0,0,0-.52-.52.6.6,0,0,0-.74.44,4.25,4.25,0,0,0-.12.94c-.13,4.39-.76,8.73-1.26,13.08l0,.25c-.18,1.47-.31,1.47-1.93,1.56-.31,0-.65-.06-.9.21-1.08.29-2.1.87-3.28.71l-2.44-1.86h0a6.47,6.47,0,0,0-.73-1l-1.43-1h0s0,0,0,0L196.8-102h0s0,0,0,0l-.7-1c-.39-.33-.63-.85-1.19-1-.09-.44-.53-.54-.78-.84a.84.84,0,0,0-1.24-.2c-.33.29-.22.81,0,1.19a3.47,3.47,0,0,0,.56.59,4.88,4.88,0,0,0,1.13,1.69A24.4,24.4,0,0,0,197-98.19l.49.74c.22.32.43.65.64,1a2.38,2.38,0,0,0,.78.94c.22.36.3.81.69,1.06l.05.84a1.39,1.39,0,0,0-.72.73A4,4,0,0,0,197.48-91l-.26.42-.45.78h-2.41l-5.68,0c-.81-.86-1.94-.19-2.85-.58-.05,0-.22.2-.29.33-.75,1.26.52.94,1,1.26l1.37.61.28.13,3.06,1.44,1.51.74,1,.5.87.43a1.2,1.2,0,0,1,.79,1.54,9.43,9.43,0,0,0-.07,1.77c-.06,2.52-.06,2.52-2.46,3-.07,0-.12.09-.18.14l-1.35.38-1.81.51-.24.07-.74.19-2.09.55a6.82,6.82,0,0,1-1.85.3c-.42,0-.75.22-.76.74s.32.64.77.65c.78,0,1.54.25,2.34.24,2.25,0,4.51,0,6.76,0h.2a1.57,1.57,0,0,1,1.16.3c0,.43,0,.87,0,1.31.09,5.85-.25,11.72.27,17.57a11.91,11.91,0,0,0,.63,4.05A12,12,0,0,0,203-43.63c.11.09.21.23.34.28a22.06,22.06,0,0,0,12.48,1.08,16.09,16.09,0,0,0,7.07-3.35l0,0,.08-.08.87-.8,1.46-1.9a11,11,0,0,0,1.4-3.08l0,0a30.77,30.77,0,0,0,.92-6.87c0-2.5,0-5,0-7.49,0-2.85,0-5.71,0-8.56v-.28a.19.19,0,0,0,0-.07v.07l10.23-.14a.39.39,0,0,1,.1.08.3.3,0,0,1,.08.08,4.45,4.45,0,0,1,.1,1.54q0,14.24,0,28.46c0,3.09-.38,2.72,2.74,2.74q5.09,0,10.17,0c1.19,0,1.39-.22,1.43-1.39,0-.36,0-.71,0-1.07q0-10.59,0-21.17c0-1.44.29-1.68,1.7-1.42.19,0,.37.15.56.2l.24.11.14.07a3.49,3.49,0,0,1,1.22,1,.44.44,0,0,1,.08.11h0a1.45,1.45,0,0,1,.17.26,2.78,2.78,0,0,1,.19,1.51c0,5.07,0,10.15,0,15.21v4.61a3.35,3.35,0,0,0,.13,1.51v0l0,0c.41.49,1,.42,1.52.42h10.16c1.48,0,1.54-.06,1.54-1.55,0-6.21,0-12.42,0-18.63A9.25,9.25,0,0,0,269.38-66.09Zm-55.84-14c0,7.8,0,15.6,0,23.4a23.15,23.15,0,0,1-.46,4.84,2.25,2.25,0,0,1-.72,1.32.53.53,0,0,0-.5.2l-.95,0c-.83-.12-1.07-.79-1.17-1.45a22.82,22.82,0,0,1-.26-3.3q0-13.74,0-27.47a11.89,11.89,0,0,1,.7-4.41l0,0a1.13,1.13,0,0,1,1.29-.88c.53,0,1.22,0,1.3.84,0,.06,0,.07,0,.07A20.3,20.3,0,0,1,213.54-80.09Zm14.13,5.21v-.05a.43.43,0,0,1,0,.05Zm9.67-1.87a31.13,31.13,0,0,0-3.69-.93c-1.18-.23-2.38-.43-3.56-.68a.59.59,0,0,0-.06-.2c-.19-.48-.69-.5-1.12-.55a1,1,0,0,1-.93-1.12,15.35,15.35,0,0,0-.19-3,1.37,1.37,0,0,1,.8-1.44c.58-.38,1.37-.38,1.77-1,0,0,0,0,0,0a.07.07,0,0,0,0,0v0l.36-.15a4.2,4.2,0,0,0,1.47-.64l.1-.09a12.72,12.72,0,0,0,3.28-1.47l.2-.08a2.4,2.4,0,0,0,1.16-.45l0,0c0-.06.05-.13.07-.2.61-.19.91-.12.9.67,0,2.82,0,5.65,0,8.47v2.27C237.93-77,238-76.52,237.34-76.75Zm9.41-25.49c-.47,0-.83-.19-.77-.63a.83.83,0,0,1,.53-.79c-.64-.09-.48-.73-.66-1.14a1.68,1.68,0,0,1,.21-.18,1,1,0,0,1,1.25-.13h0a.65.65,0,0,1,.15.1c-.12.48.1,1.17-.5,1.32.44.08.49.44.56.73C247.55-102.3,247.19-102.25,246.75-102.24Zm2.78,8.18a.79.79,0,0,1-.86-.89c0-.6.33-.85.89-.87s.81.35.85.9S250.17-94,249.53-94.06Zm-.85-14.14c0-.55.21-.76.78-.76s.93.18.91.79-.39.72-.89.64C248.94-107.44,248.65-107.57,248.68-108.2Zm2.71,7.79c-.23-.88.49-.76.9-.82.62-.08.91.35,1,.94.06.85-.59.77-.87.83C251.26-99.29,251.51-100,251.39-100.41Zm1.58-4.9c.17.63.46,1.34-.47,1.59-1.12.3-.94-.67-1.11-1.27l.12-.13a1.65,1.65,0,0,1,1.44-.19s0,0,0,0Zm4.12,27.94a2.4,2.4,0,0,1-1,2.14.51.51,0,0,1-.48.28c-.87.87-2,.41-2.94.43-.4,0-.39-.42-.39-.74q0-5.47,0-10.95a1.34,1.34,0,0,1,0-.2c.06-.51.35-.76.93-.73h.08a5.23,5.23,0,0,0,.56,0,1.58,1.58,0,0,1,1.42.51,1.18,1.18,0,0,1,1.06.7,2.21,2.21,0,0,1,.75,1.9C257.05-81.82,257.06-79.59,257.09-77.37ZM255.23-96.5c-.78,0-1-.42-1-1.13s.4-.77,1-.81c.85,0,.75.48.72,1S256-96.46,255.23-96.5Zm-.16,1c.53-.09.9,0,.82.7-.06.5,0,1-.74.9s-.94-.23-1-.92S254.55-95.6,255.07-95.54Zm2.54-2.87a2,2,0,0,1-.61-.06,7.91,7.91,0,0,1,0-1.78s.4,0,.4,0c.72,0,1.4-.22,1.37,1C258.75-98.27,258.19-98.44,257.61-98.41Zm-.38-7.37c-1.43,0-1.59-.2-1.61-1.7a7.5,7.5,0,0,0-.16-2,1.37,1.37,0,0,0-1.54-1.14c-1.55,0-3.11,0-4.66,0h0c-.78,0-1.19-.3-1.2-1.06,0-2.63-.05-5.25,0-7.88,0-.73.38-1.19,1.3-1.16a51.91,51.91,0,0,0,7.27-.23,25.89,25.89,0,0,0,3.37-.61c.66-.17,1,0,1.23.31a1.87,1.87,0,0,1,.16.85c0,2.19,0,4.38,0,6.57h0c0,2.15,0,4.3,0,6.45,0,1.06-.32,1.65-1.51,1.57C259-105.85,258.11-105.78,257.23-105.78ZM260-93.2v-1.52s1.61-.45,1.62.59S261.44-93,260-93.2Zm.83-8.79c-.57,0-.89-.11-.88-.78s.11-1,.84-1,.86.27.84.85S261.47-102,260.81-102Zm-62.12,1.64h0v0m19.85,3.83-1.27-.38m8-.31a8.12,8.12,0,0,1-.64.81m37.52-25.76-1,.91M196.8-102h0m0,0h0m18.72,4.6,1.64.49A10.64,10.64,0,0,0,215.52-97.41Z" transform="translate(-2.6 167.96)" fill="#fff" stroke="#000" stroke-miterlimit="10" stroke-width="0.25"/>
        <path d="M187.93-96.52c-1.35.09-1.43-.77-1.41-1.78,0-1.19,0-2.38,0-3.57,0-.39,0-.71-.55-.68s-.39.41-.39.69c0,1,.06,1.91,0,2.86-.07.78.51,2-.77,2.15s-1.08-1.1-1.35-1.87h-.14c-.42-.06-.55-.43-.58-.77-.14-1.87-.72-3.68-.81-5.55a2.44,2.44,0,0,1,.27-1.62c.25-.35.58-.73.85-.32a0,0,0,0,1,0,0,.55.55,0,0,1,.13.3h.15c.19.07.31.25.63.41a11.35,11.35,0,0,0,0-2.53c-.17-.17-.22,0-.27.06-.22.42-.41.94-1,.82s-.73-.75-.8-1.31a78.1,78.1,0,0,1-.25-9.43c0-2.39,0-2.45-2.32-1.77a75.13,75.13,0,0,1-9.82,2.27,45.43,45.43,0,0,1-7.91.69c-3.06-.09-3.06,0-3.06,3v15.06A9.72,9.72,0,0,1,158.5-98a1.71,1.71,0,0,1-1.73,1.77c-.51.08-1,.08-1.36.59,0,0,.18.51.21.66.31,1.38.66,2.23,1,3.85,0,0,2.6,7.89,2.68,8.25.61,2.69,1.38,5.34,2.18,8a.65.65,0,0,1,0,.19c.06.25.51,1.43.58,1.74.72,3.19,1.82,6.27,2.55,9.46a.49.49,0,0,1-.11.43l.22.05a1.77,1.77,0,0,1,.45,1.44c0,6.44,0,12.89,0,19.34a1.58,1.58,0,0,1-.06.48l.07,0a11.29,11.29,0,0,1,3-.11c2.73.1,5.45-.24,8.17-.25,1.21,0,1.19-.76,1.19-1.59,0-5.68,0-11.37,0-17.05a17.25,17.25,0,0,1,.84-4.3.81.81,0,0,1,.63-.65l.09,0a.06.06,0,0,1,0,0c-.28-.31-.18-.67-.12-1,.18-1.1.71-2.1.87-3.21a.61.61,0,0,1,.49-.54c-.14-1.24.48-2.3.77-3.44.46-1.84,1.15-3.61,1.58-5.46a.56.56,0,0,1,.45-.49h0a3,3,0,0,1,.76-2.6.25.25,0,0,1,.15,0c-.21-.78-.39-1.55.44-2.07a.61.61,0,0,1,0-.12,10.42,10.42,0,0,1,.32-1.84c0-.34.17-.69.57-.74,0,0,0,0,0,0a14.3,14.3,0,0,1,1-4.23c.4-1.35,1.12-2.6,1.42-4A.83.83,0,0,1,188-96a.62.62,0,0,1,.38-.21C188.23-96.3,188.07-96.53,187.93-96.52Zm-29,3a1.5,1.5,0,0,1-1.82,0l-.07,0a1.18,1.18,0,0,1-.13-1.8,1.24,1.24,0,0,1,1.82-.13C159.51-94.82,159.26-94.15,158.89-93.47Zm1.58,8.68c-1,.08-1.25-.4-1.08-1.28-.18-.89.2-1.35,1.11-1.35s1.45.5,1.46,1.51S161.25-84.84,160.47-84.79Zm-1.11-6.89c.06-.75.21-1.34.89-1.32,1.21.06,1.64.6,1.63,1.54s-.77,1.08-1.46,1.1C159.56-90.33,159.3-90.86,159.36-91.68Zm3.75,12.6c-.9.07-1.44-.14-1.42-1.29s.74-1.36,1.69-1.39,1.34.39,1.36,1.42C164.76-79.07,164-79,163.11-79.08Zm2.17-21.52c.42.45.47.88-.07,1.17-.74.4-.58.7,0,1.12.32.24.59.67.31,1a1.83,1.83,0,0,1-1.85.77.91.91,0,0,1-.83-.86c0-.91.79-.86,1.46-1-.62-.22-1.54,0-1.53-1,0-.63-.3-1.37.4-1.87s0-.76-.19-1.12a1.44,1.44,0,0,1,.29-2,1.37,1.37,0,0,1,1.87.06c1,.6.39,1.54.4,2.3s-.71.58-1.35.63A4.39,4.39,0,0,1,165.28-100.6Zm-.41-6.69c.73.22.79.82.65,1.39a1.24,1.24,0,0,1-1.28,1c-.47,0-.94.17-1.31-.27a2.88,2.88,0,0,1,.83-3.34,1.48,1.48,0,0,1,1-.27c.36,0,.65.13.66.51s-.35.45-.68.46a2.6,2.6,0,0,0-1,.13Zm4.8,34a1.52,1.52,0,0,1-2.21,0,2.51,2.51,0,0,1-.2-2.07c.12-.77.78-.64,1.32-.65s1.18-.08,1.29.7A2.53,2.53,0,0,1,169.67-73.25Zm-2.24-8a1.57,1.57,0,0,1,2.22,0,2.55,2.55,0,0,1,.17,2c-.1.78-.81.7-1.41.71s-1.12,0-1.14-.72A3.33,3.33,0,0,1,167.43-81.3Zm10.27-.19c-1,0-1.4-.63-1.4-1.53s.16-1.6,1.28-1.6,1.57.31,1.58,1.52S178.85-81.48,177.7-81.49Zm-.08-8.38c-1,0-1.24-.74-1.31-1.5A1.38,1.38,0,0,1,177.74-93c.91,0,1.42.62,1.42,1.62S178.57-89.9,177.62-89.87Zm.58-25.36c0,1.27,0,2.54-.07,3.8s.17,1.53,1.5,1.26c.54-.28.44-.77.42-1.25s0-.91.5-.89a.76.76,0,0,1,.71.91,57.83,57.83,0,0,1-.5,6.05c-.29,1.61.16,3.28-.43,4.83-.44,1.18-.23,2.59-1.33,3.54a1.85,1.85,0,0,1-2,.4c-.63-.27-.49-.84-.5-1.33,0-1.75,0-3.5,0-5.25,0-.28.26-.83-.35-.79s-.46.49-.44.89a26.24,26.24,0,0,1-.37,7.91c-.49,2.13-.8,4.31-1.26,6.45s-.8,4.24-1.15,6.36c-.29,1.74-.72,3.45-.93,5.2-.06.51-.1,1-.61,1.31,0,0-.06,0-.07,0a.36.36,0,0,1,0-.11c-.15-.27-.47-.56-.44-.81.28-2.17-.81-4.16-.78-6.31a21.49,21.49,0,0,0-.81-4.84c-.46-2.14-.4-4.38-1.21-6.45A5.29,5.29,0,0,1,168-96a2.11,2.11,0,0,0-.63-.26c-1.11,0-1.48-.74-1.47-1.72,0-3.36,0-6.73.13-10.09,0-.92-.1-1.31-1.13-1.21a12.71,12.71,0,0,0-2.82.14c0,3.75,0,7.49,0,11.24,0,.68.2,1.52-.95,1.54-1.53,0-2.12-.35-2.13-1.54,0-5.9,0-11.8,0-17.7a1,1,0,0,1,.29-.75c1.1-.93,2.49-.56,3.71-.69a92.16,92.16,0,0,0,10.82-1.57,30.38,30.38,0,0,1,4.89-1.12c.56-.66,1.31-.46,2-.45.5,0,.52.46.53.79.07,1.43.1,2.86.11,4.29a3.42,3.42,0,0,1-.19.93c-.07.23-.21.46-.48.44a.56.56,0,0,1-.51-.56c0-.32,0-.64-.05-1,0-.77-.52-.92-1.19-.92S178.21-115.69,178.2-115.23Zm6,26.76A1,1,0,0,1,183-87.19a1.34,1.34,0,0,1-1.51-1.5,1.32,1.32,0,0,1,1.56-1.44C184.12-90.08,184.25-89.41,184.18-88.47ZM187-94.1a1.5,1.5,0,0,1-2.27.83c-.55-.4-.71.06-1,.09a1.33,1.33,0,0,1-2-.33,1.16,1.16,0,0,1,.3-1.8c.7-.36,1.41-.59,2,.08.38.4.28-.08.37-.18a1.51,1.51,0,0,1,1.95-.21C187-95.33,187.07-94.7,187-94.1Z" transform="translate(-2.6 167.96)" fill="#fff" stroke="#000" stroke-miterlimit="10" stroke-width="0.25"/>
        <path d="M259.11-139.87c-.37,1.1,0,2.28-.42,3.38-.18.49-.25,1-.92,1h-8.21c-2,.25-4-.05-6.06.16-.93.1-.67-.78-.39-1.37a4.22,4.22,0,0,0,.46-2q0-12.76,0-25.52a5,5,0,0,0-.26-1.73,1.26,1.26,0,0,1-.39-1.4c.22-.51.77-.27,1.17-.27,4.28,0,8.57,0,12.86,0,1,0,1.41.28,1.27,1.29s.21,1.88-.24,2.78c-.08.41-.34.62-.63.27-.53-.62-1.19-.5-1.85-.51-1.45,0-2.91,0-4.37,0-.55,0-.74.16-.73.74q0,3.51,0,7c0,.68.27.89.91.9a18.84,18.84,0,0,0,3.83-.27c1.27-.38,1.63-.13,1.66,1.2a13.91,13.91,0,0,1,0,2.33c0,.34-.14.86-.68.94a1.79,1.79,0,0,1-1.22-.18c-1.06.1-2.06-.36-3.13-.28-.88.07-1.35.29-1.34,1.32.05,3.52,0,7.05,0,10.57,0,.49,0,1,.5,1.21a13.59,13.59,0,0,0,4.94-.72c.47-.25.94-.5,1.42-.74.22-.22.44-.44.68-.64s.45-.36.74-.18S259.22-140.21,259.11-139.87Z" transform="translate(-2.6 167.96)" fill="#fff" stroke="#000" stroke-miterlimit="10" stroke-width="0.25"/>
        <path d="M237.16-167.28c-2-.06-2,0-1.87,2,.21,2.61.21,5.21.19,7.81,0,1.31-.24,1.53-1.61,1.54-1.54,0-3.08-.06-4.62,0-1.15.07-1.61-.47-1.6-1.5a48.15,48.15,0,0,1,.44-9c.09-.42.13-.89-.57-.89-1.7,0-3.4,0-5.1,0-.69,0-.65.33-.48.83a10.77,10.77,0,0,1,.58,3.57c0,3.25.06,6.5,0,9.75-.17,5.81.57,11.65-.53,17.44l5.44,0c.39,0,.8.1.68-.58-.84-5-.29-10-.42-15a1.17,1.17,0,0,1,1.39-1.32c1.69.07,3.39,0,5.09,0a1.39,1.39,0,0,1,1.53,1.62c-.42,3.31-.06,6.63-.2,9.94a39.56,39.56,0,0,1-.35,4.49c-.13.76,0,.88.69.87,1.78,0,3.55,0,5.33,0,.25-2.14-.47-4.2-.47-6.32,0-5.74,0-11.47,0-17.21a44.66,44.66,0,0,1,.75-7.83A15.71,15.71,0,0,0,237.16-167.28Z" transform="translate(-2.6 167.96)" fill="#fff" stroke="#000" stroke-miterlimit="10" stroke-width="0.25"/>
        <path d="M220-162.43a1.27,1.27,0,0,1-1.33-.21,5.63,5.63,0,0,0-3.27-.59c-.76,0-1.07.41-1,1.29.08,6,.09,12.07.12,18.11,0,4.88,0,9.77.06,14.65a7.71,7.71,0,0,0,.95,3.36c.51,1,.36,1.37-.74,1.38h-7.68c-1.06,0-1.39-.49-.83-1.38a9.37,9.37,0,0,0,1.27-5.2c0-10.16,0-20.33,0-30.49,0-1.45-.72-2.07-2.16-1.74-.63.14,1.37-.26-1.84.34-1,.31-1.29,1.28-2.12.57s-.1-1.46.21-2.16a5.63,5.63,0,0,0,.4-1.84,1.44,1.44,0,0,1,1.6-1.49c4.91,0,9.82,0,14.73,0,.38,0,.83-.11.91.47.31,1.21.63,2.42.91,3.63C220.28-163.29,220.51-162.72,220-162.43Z" transform="translate(-2.6 167.96)" fill="#fefefe" stroke="#000" stroke-miterlimit="10" stroke-width="0.25"/>
      </svg>
      
      

</svg>